G75*
%MOIN*%
%OFA0B0*%
%FSLAX25Y25*%
%IPPOS*%
%LPD*%
%AMOC8*
5,1,8,0,0,1.08239X$1,22.5*
%
%ADD10C,0.13398*%
%ADD11C,0.06800*%
%ADD12R,0.06800X0.06800*%
%ADD13C,0.01360*%
%ADD14OC8,0.07400*%
%ADD15C,0.03162*%
%ADD16C,0.13792*%
%ADD17C,0.09400*%
%ADD18R,0.09400X0.09400*%
%ADD19OC8,0.06737*%
%ADD20R,0.06737X0.06737*%
%ADD21OC8,0.04762*%
%ADD22OC8,0.05800*%
D10*
X0056918Y0049044D03*
X0056918Y0218335D03*
X0340383Y0218335D03*
D11*
X0274914Y0156898D02*
X0270671Y0161141D01*
X0258084Y0148554D02*
X0262327Y0144311D01*
X0276186Y0130452D02*
X0280429Y0126209D01*
X0293016Y0138796D02*
X0288773Y0143039D01*
X0188278Y0219035D02*
X0184035Y0223278D01*
X0176964Y0216207D02*
X0181207Y0211964D01*
X0174136Y0204893D02*
X0169893Y0209136D01*
X0162822Y0202065D02*
X0167065Y0197822D01*
X0152867Y0183625D02*
X0148625Y0187867D01*
X0141554Y0180796D02*
X0145796Y0176554D01*
X0138725Y0169483D02*
X0134483Y0173725D01*
D12*
G36*
X0248072Y0091193D02*
X0243264Y0086385D01*
X0238456Y0091193D01*
X0243264Y0096001D01*
X0248072Y0091193D01*
G37*
D13*
X0252375Y0098711D02*
X0253055Y0099391D01*
X0253055Y0097137D01*
X0251463Y0095545D01*
X0249209Y0095545D01*
X0247617Y0097137D01*
X0247617Y0099391D01*
X0249209Y0100983D01*
X0251463Y0100983D01*
X0253055Y0099391D01*
X0252035Y0098968D01*
X0252035Y0097560D01*
X0251040Y0096565D01*
X0249632Y0096565D01*
X0248637Y0097560D01*
X0248637Y0098968D01*
X0249632Y0099963D01*
X0251040Y0099963D01*
X0252035Y0098968D01*
X0251015Y0098546D01*
X0251015Y0097982D01*
X0250618Y0097585D01*
X0250054Y0097585D01*
X0249657Y0097982D01*
X0249657Y0098546D01*
X0250054Y0098943D01*
X0250618Y0098943D01*
X0251015Y0098546D01*
X0259446Y0105783D02*
X0260126Y0106463D01*
X0260126Y0104209D01*
X0258534Y0102617D01*
X0256280Y0102617D01*
X0254688Y0104209D01*
X0254688Y0106463D01*
X0256280Y0108055D01*
X0258534Y0108055D01*
X0260126Y0106463D01*
X0259106Y0106040D01*
X0259106Y0104632D01*
X0258111Y0103637D01*
X0256703Y0103637D01*
X0255708Y0104632D01*
X0255708Y0106040D01*
X0256703Y0107035D01*
X0258111Y0107035D01*
X0259106Y0106040D01*
X0258086Y0105618D01*
X0258086Y0105054D01*
X0257689Y0104657D01*
X0257125Y0104657D01*
X0256728Y0105054D01*
X0256728Y0105618D01*
X0257125Y0106015D01*
X0257689Y0106015D01*
X0258086Y0105618D01*
X0252375Y0112854D02*
X0253055Y0113534D01*
X0253055Y0111280D01*
X0251463Y0109688D01*
X0249209Y0109688D01*
X0247617Y0111280D01*
X0247617Y0113534D01*
X0249209Y0115126D01*
X0251463Y0115126D01*
X0253055Y0113534D01*
X0252035Y0113111D01*
X0252035Y0111703D01*
X0251040Y0110708D01*
X0249632Y0110708D01*
X0248637Y0111703D01*
X0248637Y0113111D01*
X0249632Y0114106D01*
X0251040Y0114106D01*
X0252035Y0113111D01*
X0251015Y0112689D01*
X0251015Y0112125D01*
X0250618Y0111728D01*
X0250054Y0111728D01*
X0249657Y0112125D01*
X0249657Y0112689D01*
X0250054Y0113086D01*
X0250618Y0113086D01*
X0251015Y0112689D01*
X0245303Y0105783D02*
X0245983Y0106463D01*
X0245983Y0104209D01*
X0244391Y0102617D01*
X0242137Y0102617D01*
X0240545Y0104209D01*
X0240545Y0106463D01*
X0242137Y0108055D01*
X0244391Y0108055D01*
X0245983Y0106463D01*
X0244963Y0106040D01*
X0244963Y0104632D01*
X0243968Y0103637D01*
X0242560Y0103637D01*
X0241565Y0104632D01*
X0241565Y0106040D01*
X0242560Y0107035D01*
X0243968Y0107035D01*
X0244963Y0106040D01*
X0243943Y0105618D01*
X0243943Y0105054D01*
X0243546Y0104657D01*
X0242982Y0104657D01*
X0242585Y0105054D01*
X0242585Y0105618D01*
X0242982Y0106015D01*
X0243546Y0106015D01*
X0243943Y0105618D01*
X0238232Y0098711D02*
X0238912Y0099391D01*
X0238912Y0097137D01*
X0237320Y0095545D01*
X0235066Y0095545D01*
X0233474Y0097137D01*
X0233474Y0099391D01*
X0235066Y0100983D01*
X0237320Y0100983D01*
X0238912Y0099391D01*
X0237892Y0098968D01*
X0237892Y0097560D01*
X0236897Y0096565D01*
X0235489Y0096565D01*
X0234494Y0097560D01*
X0234494Y0098968D01*
X0235489Y0099963D01*
X0236897Y0099963D01*
X0237892Y0098968D01*
X0236872Y0098546D01*
X0236872Y0097982D01*
X0236475Y0097585D01*
X0235911Y0097585D01*
X0235514Y0097982D01*
X0235514Y0098546D01*
X0235911Y0098943D01*
X0236475Y0098943D01*
X0236872Y0098546D01*
D14*
X0198650Y0139595D03*
X0098675Y0079613D03*
X0098675Y0069613D03*
X0041800Y0069613D03*
X0031175Y0069613D03*
D15*
X0021879Y0080636D03*
X0021879Y0096384D03*
D16*
X0013812Y0019497D03*
X0033812Y0019497D03*
X0053812Y0019497D03*
X0073812Y0019497D03*
X0093812Y0019497D03*
X0113812Y0019497D03*
X0133812Y0019497D03*
X0153812Y0019497D03*
X0377843Y0153300D03*
X0377843Y0173300D03*
X0377843Y0192985D03*
X0377843Y0212985D03*
X0377843Y0232985D03*
X0383685Y0259694D03*
X0363685Y0259694D03*
X0343685Y0259694D03*
X0323685Y0259694D03*
X0303685Y0259733D03*
X0283685Y0259733D03*
X0263685Y0259733D03*
X0243685Y0259733D03*
X0153646Y0259694D03*
X0133646Y0259694D03*
X0113646Y0259694D03*
X0093646Y0259694D03*
X0073646Y0259694D03*
X0053646Y0259694D03*
X0033646Y0259694D03*
X0013646Y0259694D03*
X0019514Y0232819D03*
X0019514Y0212819D03*
X0019514Y0192819D03*
D17*
X0078970Y0180934D03*
D18*
X0053380Y0180934D03*
D19*
X0263050Y0044300D03*
X0273050Y0044300D03*
X0273050Y0034300D03*
X0263050Y0034300D03*
X0263050Y0024300D03*
X0273050Y0024300D03*
X0273050Y0014300D03*
X0263050Y0014300D03*
X0283050Y0024300D03*
X0293050Y0024300D03*
X0293050Y0034300D03*
X0283050Y0034300D03*
X0283050Y0044300D03*
X0293050Y0044300D03*
X0293050Y0054300D03*
X0273050Y0054300D03*
D20*
X0263050Y0054300D03*
X0283050Y0054300D03*
D21*
X0271800Y0071800D03*
X0277113Y0077738D03*
X0247425Y0083988D03*
X0226487Y0065550D03*
X0222112Y0060237D03*
X0207737Y0071800D03*
X0212425Y0077738D03*
X0243362Y0118362D03*
X0230862Y0170238D03*
X0225862Y0175237D03*
X0221175Y0181800D03*
X0194612Y0184300D03*
X0194612Y0192737D03*
X0173362Y0184300D03*
X0098362Y0148363D03*
X0093646Y0158675D03*
X0093646Y0120550D03*
X0098362Y0115862D03*
X0154588Y0081470D03*
X0318363Y0181800D03*
X0322425Y0175237D03*
X0326800Y0170238D03*
D22*
X0376463Y0067408D03*
M02*
