%
M48
M72
T01C0.02362
T02C0.03150
T03C0.03543
T04C0.03937
T05C0.04000
T06C0.05118
T07C0.12598
%
T01
X21879Y80636
X21879Y96384
X93646Y120550
X98362Y115862
X98362Y148363
X93646Y158675
X173362Y184300
X194612Y184300
X194612Y192737
X221175Y181800
X225862Y175237
X230862Y170238
X243362Y118362
X247425Y83988
X271800Y71800
X277113Y77738
X226487Y65550
X222112Y60237
X207737Y71800
X212425Y77738
X154588Y81470
X318363Y181800
X322425Y175237
X326800Y170238
T02
X198650Y139595
X41800Y69613
X31175Y69613
X376463Y67408
T03
X98675Y69613
X98675Y79613
X78970Y180934
X53380Y180934
T04
X263050Y54300
X273050Y54300
X283050Y54300
X293050Y54300
X293050Y44300
X283050Y44300
X283050Y34300
X293050Y34300
X293050Y24300
X283050Y24300
X273050Y24300
X263050Y24300
X263050Y14300
X273050Y14300
X273050Y34300
X263050Y34300
X263050Y44300
X273050Y44300
T05
X243264Y91193
X236193Y98264
X243264Y105336
X250336Y98264
X257407Y105336
X250336Y112407
X278308Y128331
X290894Y140917
X272792Y159019
X260206Y146433
X172014Y207014
X179086Y214086
X186157Y221157
X164943Y199943
X150746Y185746
X143675Y178675
X136604Y171604
T06
X13812Y19497
X33812Y19497
X53812Y19497
X73812Y19497
X93812Y19497
X113812Y19497
X133812Y19497
X153812Y19497
X377843Y153300
X377843Y173300
X377843Y192985
X377843Y212985
X377843Y232985
X383685Y259694
X363685Y259694
X343685Y259694
X323685Y259694
X303685Y259733
X283685Y259733
X263685Y259733
X243685Y259733
X153646Y259694
X133646Y259694
X113646Y259694
X93646Y259694
X73646Y259694
X53646Y259694
X33646Y259694
X13646Y259694
X19514Y232819
X19514Y212819
X19514Y192819
T07
X56918Y218335
X56918Y49044
X340383Y218335
M30
