G75*
%MOIN*%
%OFA0B0*%
%FSLAX25Y25*%
%IPPOS*%
%LPD*%
%AMOC8*
5,1,8,0,0,1.08239X$1,22.5*
%
%ADD10C,0.06000*%
%ADD11R,0.06000X0.06000*%
%ADD12C,0.01200*%
%ADD13OC8,0.06600*%
%ADD14C,0.12992*%
%ADD15C,0.08600*%
%ADD16R,0.08600X0.08600*%
%ADD17OC8,0.05937*%
%ADD18R,0.05937X0.05937*%
%ADD19C,0.01600*%
%ADD20OC8,0.03962*%
%ADD21OC8,0.05000*%
%ADD22C,0.04000*%
D10*
X0138725Y0169483D02*
X0134483Y0173725D01*
X0141554Y0180796D02*
X0145796Y0176554D01*
X0152867Y0183625D02*
X0148625Y0187867D01*
X0162822Y0202065D02*
X0167065Y0197822D01*
X0174136Y0204893D02*
X0169893Y0209136D01*
X0176964Y0216207D02*
X0181207Y0211964D01*
X0188278Y0219035D02*
X0184035Y0223278D01*
X0270671Y0161141D02*
X0274914Y0156898D01*
X0262327Y0144311D02*
X0258084Y0148554D01*
X0276186Y0130452D02*
X0280429Y0126209D01*
X0293016Y0138796D02*
X0288773Y0143039D01*
D11*
G36*
X0247506Y0091193D02*
X0243264Y0086951D01*
X0239022Y0091193D01*
X0243264Y0095435D01*
X0247506Y0091193D01*
G37*
D12*
X0252135Y0098658D02*
X0252735Y0099258D01*
X0252735Y0097270D01*
X0251330Y0095865D01*
X0249342Y0095865D01*
X0247937Y0097270D01*
X0247937Y0099258D01*
X0249342Y0100663D01*
X0251330Y0100663D01*
X0252735Y0099258D01*
X0251835Y0098885D01*
X0251835Y0097643D01*
X0250957Y0096765D01*
X0249715Y0096765D01*
X0248837Y0097643D01*
X0248837Y0098885D01*
X0249715Y0099763D01*
X0250957Y0099763D01*
X0251835Y0098885D01*
X0250935Y0098512D01*
X0250935Y0098016D01*
X0250584Y0097665D01*
X0250088Y0097665D01*
X0249737Y0098016D01*
X0249737Y0098512D01*
X0250088Y0098863D01*
X0250584Y0098863D01*
X0250935Y0098512D01*
X0259206Y0105730D02*
X0259806Y0106330D01*
X0259806Y0104342D01*
X0258401Y0102937D01*
X0256413Y0102937D01*
X0255008Y0104342D01*
X0255008Y0106330D01*
X0256413Y0107735D01*
X0258401Y0107735D01*
X0259806Y0106330D01*
X0258906Y0105957D01*
X0258906Y0104715D01*
X0258028Y0103837D01*
X0256786Y0103837D01*
X0255908Y0104715D01*
X0255908Y0105957D01*
X0256786Y0106835D01*
X0258028Y0106835D01*
X0258906Y0105957D01*
X0258006Y0105584D01*
X0258006Y0105088D01*
X0257655Y0104737D01*
X0257159Y0104737D01*
X0256808Y0105088D01*
X0256808Y0105584D01*
X0257159Y0105935D01*
X0257655Y0105935D01*
X0258006Y0105584D01*
X0252135Y0112801D02*
X0252735Y0113401D01*
X0252735Y0111413D01*
X0251330Y0110008D01*
X0249342Y0110008D01*
X0247937Y0111413D01*
X0247937Y0113401D01*
X0249342Y0114806D01*
X0251330Y0114806D01*
X0252735Y0113401D01*
X0251835Y0113028D01*
X0251835Y0111786D01*
X0250957Y0110908D01*
X0249715Y0110908D01*
X0248837Y0111786D01*
X0248837Y0113028D01*
X0249715Y0113906D01*
X0250957Y0113906D01*
X0251835Y0113028D01*
X0250935Y0112655D01*
X0250935Y0112159D01*
X0250584Y0111808D01*
X0250088Y0111808D01*
X0249737Y0112159D01*
X0249737Y0112655D01*
X0250088Y0113006D01*
X0250584Y0113006D01*
X0250935Y0112655D01*
X0245063Y0105730D02*
X0245663Y0106330D01*
X0245663Y0104342D01*
X0244258Y0102937D01*
X0242270Y0102937D01*
X0240865Y0104342D01*
X0240865Y0106330D01*
X0242270Y0107735D01*
X0244258Y0107735D01*
X0245663Y0106330D01*
X0244763Y0105957D01*
X0244763Y0104715D01*
X0243885Y0103837D01*
X0242643Y0103837D01*
X0241765Y0104715D01*
X0241765Y0105957D01*
X0242643Y0106835D01*
X0243885Y0106835D01*
X0244763Y0105957D01*
X0243863Y0105584D01*
X0243863Y0105088D01*
X0243512Y0104737D01*
X0243016Y0104737D01*
X0242665Y0105088D01*
X0242665Y0105584D01*
X0243016Y0105935D01*
X0243512Y0105935D01*
X0243863Y0105584D01*
X0237992Y0098658D02*
X0238592Y0099258D01*
X0238592Y0097270D01*
X0237187Y0095865D01*
X0235199Y0095865D01*
X0233794Y0097270D01*
X0233794Y0099258D01*
X0235199Y0100663D01*
X0237187Y0100663D01*
X0238592Y0099258D01*
X0237692Y0098885D01*
X0237692Y0097643D01*
X0236814Y0096765D01*
X0235572Y0096765D01*
X0234694Y0097643D01*
X0234694Y0098885D01*
X0235572Y0099763D01*
X0236814Y0099763D01*
X0237692Y0098885D01*
X0236792Y0098512D01*
X0236792Y0098016D01*
X0236441Y0097665D01*
X0235945Y0097665D01*
X0235594Y0098016D01*
X0235594Y0098512D01*
X0235945Y0098863D01*
X0236441Y0098863D01*
X0236792Y0098512D01*
D13*
X0198650Y0139595D03*
X0098675Y0079613D03*
X0098675Y0069613D03*
X0041800Y0069613D03*
X0031175Y0069613D03*
D14*
X0033812Y0019497D03*
X0013812Y0019497D03*
X0053812Y0019497D03*
X0073812Y0019497D03*
X0093812Y0019497D03*
X0113812Y0019497D03*
X0133812Y0019497D03*
X0153812Y0019497D03*
X0377843Y0153300D03*
X0377843Y0173300D03*
X0377843Y0192985D03*
X0377843Y0212985D03*
X0377843Y0232985D03*
X0383685Y0259694D03*
X0363685Y0259694D03*
X0343685Y0259694D03*
X0323685Y0259694D03*
X0303685Y0259733D03*
X0283685Y0259733D03*
X0263685Y0259733D03*
X0243685Y0259733D03*
X0153646Y0259694D03*
X0133646Y0259694D03*
X0113646Y0259694D03*
X0093646Y0259694D03*
X0073646Y0259694D03*
X0053646Y0259694D03*
X0033646Y0259694D03*
X0013646Y0259694D03*
X0019514Y0232819D03*
X0019514Y0212819D03*
X0019514Y0192819D03*
D15*
X0078970Y0180934D03*
D16*
X0053380Y0180934D03*
D17*
X0263050Y0044300D03*
X0273050Y0044300D03*
X0273050Y0034300D03*
X0263050Y0034300D03*
X0263050Y0024300D03*
X0273050Y0024300D03*
X0273050Y0014300D03*
X0263050Y0014300D03*
X0283050Y0024300D03*
X0293050Y0024300D03*
X0293050Y0034300D03*
X0283050Y0034300D03*
X0283050Y0044300D03*
X0293050Y0044300D03*
X0293050Y0054300D03*
X0273050Y0054300D03*
D18*
X0263050Y0054300D03*
X0283050Y0054300D03*
D19*
X0390701Y0006600D02*
X0006600Y0006600D01*
X0006600Y0063929D01*
X0006811Y0063929D01*
X0009423Y0065011D01*
X0011423Y0067011D01*
X0011423Y0067011D01*
X0012505Y0069624D01*
X0012505Y0107248D01*
X0011431Y0109841D01*
X0009447Y0111825D01*
X0009447Y0111825D01*
X0006854Y0112899D01*
X0006600Y0112899D01*
X0006600Y0250765D01*
X0006710Y0250655D01*
X0009286Y0249167D01*
X0012159Y0248398D01*
X0015133Y0248398D01*
X0018006Y0249167D01*
X0020582Y0250655D01*
X0022685Y0252758D01*
X0024172Y0255334D01*
X0024942Y0258207D01*
X0024942Y0261181D01*
X0024172Y0264054D01*
X0022685Y0266630D01*
X0020582Y0268733D01*
X0018006Y0270220D01*
X0015133Y0270990D01*
X0012159Y0270990D01*
X0009286Y0270220D01*
X0006710Y0268733D01*
X0006600Y0268623D01*
X0006600Y0272591D01*
X0390701Y0272591D01*
X0390701Y0006600D01*
X0390701Y0008194D02*
X0006600Y0008194D01*
X0006600Y0009793D02*
X0088028Y0009793D01*
X0086876Y0010458D02*
X0089452Y0008971D01*
X0092325Y0008201D01*
X0095299Y0008201D01*
X0098172Y0008971D01*
X0100748Y0010458D01*
X0102851Y0012561D01*
X0103812Y0014225D01*
X0104773Y0012561D01*
X0106876Y0010458D01*
X0109452Y0008971D01*
X0112325Y0008201D01*
X0115299Y0008201D01*
X0118172Y0008971D01*
X0120748Y0010458D01*
X0122851Y0012561D01*
X0123812Y0014225D01*
X0124773Y0012561D01*
X0126876Y0010458D01*
X0129452Y0008971D01*
X0132325Y0008201D01*
X0135299Y0008201D01*
X0138172Y0008971D01*
X0140748Y0010458D01*
X0142851Y0012561D01*
X0143812Y0014225D01*
X0144773Y0012561D01*
X0146876Y0010458D01*
X0149452Y0008971D01*
X0152325Y0008201D01*
X0155299Y0008201D01*
X0158172Y0008971D01*
X0160748Y0010458D01*
X0162851Y0012561D01*
X0164338Y0015137D01*
X0165108Y0018010D01*
X0165108Y0020984D01*
X0164338Y0023857D01*
X0162851Y0026433D01*
X0160748Y0028536D01*
X0158172Y0030023D01*
X0155299Y0030793D01*
X0152325Y0030793D01*
X0149452Y0030023D01*
X0146876Y0028536D01*
X0144773Y0026433D01*
X0143812Y0024768D01*
X0142851Y0026433D01*
X0140748Y0028536D01*
X0138172Y0030023D01*
X0135299Y0030793D01*
X0132325Y0030793D01*
X0129452Y0030023D01*
X0126876Y0028536D01*
X0124773Y0026433D01*
X0123812Y0024768D01*
X0122851Y0026433D01*
X0120748Y0028536D01*
X0118172Y0030023D01*
X0115299Y0030793D01*
X0112325Y0030793D01*
X0109452Y0030023D01*
X0106876Y0028536D01*
X0104773Y0026433D01*
X0103812Y0024768D01*
X0102851Y0026433D01*
X0100748Y0028536D01*
X0098172Y0030023D01*
X0095299Y0030793D01*
X0092325Y0030793D01*
X0089452Y0030023D01*
X0086876Y0028536D01*
X0084773Y0026433D01*
X0083286Y0023857D01*
X0082516Y0020984D01*
X0082516Y0018010D01*
X0083286Y0015137D01*
X0084773Y0012561D01*
X0086876Y0010458D01*
X0085943Y0011391D02*
X0006600Y0011391D01*
X0006600Y0012990D02*
X0084526Y0012990D01*
X0083603Y0014588D02*
X0006600Y0014588D01*
X0006600Y0016187D02*
X0083005Y0016187D01*
X0082576Y0017785D02*
X0006600Y0017785D01*
X0006600Y0019384D02*
X0082516Y0019384D01*
X0082516Y0020982D02*
X0006600Y0020982D01*
X0006600Y0022581D02*
X0082944Y0022581D01*
X0083472Y0024179D02*
X0006600Y0024179D01*
X0006600Y0025778D02*
X0084395Y0025778D01*
X0085716Y0027376D02*
X0006600Y0027376D01*
X0006600Y0028975D02*
X0087636Y0028975D01*
X0091505Y0030573D02*
X0006600Y0030573D01*
X0006600Y0032172D02*
X0255281Y0032172D01*
X0255281Y0031082D02*
X0257064Y0029300D01*
X0255281Y0027518D01*
X0255281Y0021082D01*
X0259832Y0016531D01*
X0266268Y0016531D01*
X0268050Y0018314D01*
X0269832Y0016531D01*
X0276268Y0016531D01*
X0278050Y0018314D01*
X0279832Y0016531D01*
X0286268Y0016531D01*
X0288050Y0018314D01*
X0289832Y0016531D01*
X0296268Y0016531D01*
X0300818Y0021082D01*
X0300818Y0027518D01*
X0299036Y0029300D01*
X0300818Y0031082D01*
X0300818Y0037518D01*
X0299036Y0039300D01*
X0300818Y0041082D01*
X0300818Y0047518D01*
X0299036Y0049300D01*
X0300818Y0051082D01*
X0300818Y0057518D01*
X0296268Y0062068D01*
X0289832Y0062068D01*
X0285281Y0057518D01*
X0285281Y0054900D01*
X0280818Y0054900D01*
X0280818Y0057518D01*
X0276268Y0062068D01*
X0269832Y0062068D01*
X0268919Y0061156D01*
X0268737Y0061338D01*
X0266973Y0062068D01*
X0259127Y0062068D01*
X0257363Y0061338D01*
X0256012Y0059987D01*
X0255281Y0058223D01*
X0255281Y0054900D01*
X0241745Y0054900D01*
X0233269Y0063376D01*
X0233269Y0066200D01*
X0267810Y0066200D01*
X0268991Y0065019D01*
X0274609Y0065019D01*
X0278581Y0068991D01*
X0278581Y0070956D01*
X0279921Y0070956D01*
X0283894Y0074929D01*
X0283894Y0080546D01*
X0279921Y0084519D01*
X0274304Y0084519D01*
X0273123Y0083337D01*
X0254695Y0083337D01*
X0255610Y0084253D01*
X0256462Y0086311D01*
X0256462Y0092289D01*
X0256149Y0093047D01*
X0258136Y0095034D01*
X0258136Y0097536D01*
X0260637Y0097536D01*
X0265207Y0102105D01*
X0265207Y0108566D01*
X0260637Y0113136D01*
X0254176Y0113136D01*
X0252374Y0111333D01*
X0249148Y0114559D01*
X0250144Y0115554D01*
X0250144Y0121171D01*
X0246171Y0125144D01*
X0240554Y0125144D01*
X0236581Y0121171D01*
X0236581Y0115554D01*
X0237762Y0114373D01*
X0237762Y0111311D01*
X0237893Y0110995D01*
X0235464Y0108566D01*
X0235464Y0106064D01*
X0232963Y0106064D01*
X0228393Y0101495D01*
X0228393Y0095034D01*
X0232963Y0090464D01*
X0234222Y0090464D01*
X0234222Y0090239D01*
X0234953Y0088474D01*
X0240090Y0083337D01*
X0216415Y0083337D01*
X0215234Y0084519D01*
X0209616Y0084519D01*
X0205644Y0080546D01*
X0205644Y0078581D01*
X0204929Y0078581D01*
X0200956Y0074609D01*
X0200956Y0068991D01*
X0204929Y0065019D01*
X0210546Y0065019D01*
X0211727Y0066200D01*
X0218485Y0066200D01*
X0215331Y0063046D01*
X0215331Y0057429D01*
X0216654Y0056106D01*
X0217365Y0054390D01*
X0218940Y0052814D01*
X0232202Y0039553D01*
X0234261Y0038700D01*
X0256464Y0038700D01*
X0255281Y0037518D01*
X0255281Y0031082D01*
X0255790Y0030573D02*
X0156119Y0030573D01*
X0159988Y0028975D02*
X0256738Y0028975D01*
X0255281Y0027376D02*
X0161908Y0027376D01*
X0163230Y0025778D02*
X0255281Y0025778D01*
X0255281Y0024179D02*
X0164152Y0024179D01*
X0164680Y0022581D02*
X0255281Y0022581D01*
X0255382Y0020982D02*
X0165108Y0020982D01*
X0165108Y0019384D02*
X0256980Y0019384D01*
X0258579Y0017785D02*
X0165048Y0017785D01*
X0164620Y0016187D02*
X0390701Y0016187D01*
X0390701Y0017785D02*
X0297521Y0017785D01*
X0299120Y0019384D02*
X0390701Y0019384D01*
X0390701Y0020982D02*
X0300718Y0020982D01*
X0300818Y0022581D02*
X0390701Y0022581D01*
X0390701Y0024179D02*
X0300818Y0024179D01*
X0300818Y0025778D02*
X0390701Y0025778D01*
X0390701Y0027376D02*
X0300818Y0027376D01*
X0299362Y0028975D02*
X0390701Y0028975D01*
X0390701Y0030573D02*
X0300310Y0030573D01*
X0300818Y0032172D02*
X0390701Y0032172D01*
X0390701Y0033770D02*
X0300818Y0033770D01*
X0300818Y0035369D02*
X0390701Y0035369D01*
X0390701Y0036967D02*
X0300818Y0036967D01*
X0299771Y0038566D02*
X0390701Y0038566D01*
X0390701Y0040164D02*
X0299901Y0040164D01*
X0300818Y0041763D02*
X0390701Y0041763D01*
X0390701Y0043361D02*
X0300818Y0043361D01*
X0300818Y0044960D02*
X0390701Y0044960D01*
X0390701Y0046558D02*
X0300818Y0046558D01*
X0300179Y0048157D02*
X0390701Y0048157D01*
X0390701Y0049755D02*
X0299492Y0049755D01*
X0300818Y0051354D02*
X0390701Y0051354D01*
X0390701Y0052952D02*
X0300818Y0052952D01*
X0300818Y0054551D02*
X0390701Y0054551D01*
X0390701Y0056149D02*
X0300818Y0056149D01*
X0300588Y0057748D02*
X0390701Y0057748D01*
X0390701Y0059346D02*
X0298990Y0059346D01*
X0297391Y0060945D02*
X0390701Y0060945D01*
X0390701Y0062543D02*
X0234101Y0062543D01*
X0233269Y0064142D02*
X0390701Y0064142D01*
X0390701Y0065740D02*
X0275330Y0065740D01*
X0276929Y0067339D02*
X0390701Y0067339D01*
X0390701Y0068937D02*
X0278527Y0068937D01*
X0278581Y0070536D02*
X0390701Y0070536D01*
X0390701Y0072134D02*
X0281099Y0072134D01*
X0282698Y0073733D02*
X0390701Y0073733D01*
X0390701Y0075332D02*
X0283894Y0075332D01*
X0283894Y0076930D02*
X0390701Y0076930D01*
X0390701Y0078529D02*
X0283894Y0078529D01*
X0283894Y0080127D02*
X0390701Y0080127D01*
X0390701Y0081726D02*
X0282714Y0081726D01*
X0281116Y0083324D02*
X0390701Y0083324D01*
X0390701Y0084923D02*
X0255887Y0084923D01*
X0256462Y0086521D02*
X0390701Y0086521D01*
X0390701Y0088120D02*
X0256462Y0088120D01*
X0256462Y0089718D02*
X0390701Y0089718D01*
X0390701Y0091317D02*
X0256462Y0091317D01*
X0256203Y0092915D02*
X0390701Y0092915D01*
X0390701Y0094514D02*
X0257616Y0094514D01*
X0258136Y0096112D02*
X0390701Y0096112D01*
X0390701Y0097711D02*
X0260813Y0097711D01*
X0262411Y0099309D02*
X0390701Y0099309D01*
X0390701Y0100908D02*
X0264010Y0100908D01*
X0265207Y0102506D02*
X0390701Y0102506D01*
X0390701Y0104105D02*
X0265207Y0104105D01*
X0265207Y0105703D02*
X0390701Y0105703D01*
X0390701Y0107302D02*
X0265207Y0107302D01*
X0264873Y0108900D02*
X0390701Y0108900D01*
X0390701Y0110499D02*
X0263274Y0110499D01*
X0261676Y0112097D02*
X0390701Y0112097D01*
X0390701Y0113696D02*
X0250011Y0113696D01*
X0249884Y0115294D02*
X0390701Y0115294D01*
X0390701Y0116893D02*
X0250144Y0116893D01*
X0250144Y0118491D02*
X0390701Y0118491D01*
X0390701Y0120090D02*
X0250144Y0120090D01*
X0249627Y0121688D02*
X0390701Y0121688D01*
X0390701Y0123287D02*
X0248028Y0123287D01*
X0246430Y0124885D02*
X0390701Y0124885D01*
X0390701Y0126484D02*
X0103962Y0126484D01*
X0103962Y0128082D02*
X0390701Y0128082D01*
X0390701Y0129681D02*
X0103962Y0129681D01*
X0103962Y0131279D02*
X0290780Y0131279D01*
X0291464Y0130996D02*
X0294567Y0130996D01*
X0297434Y0132183D01*
X0299628Y0134378D01*
X0300816Y0137244D01*
X0300816Y0140347D01*
X0299628Y0143214D01*
X0293191Y0149651D01*
X0290777Y0150651D01*
X0282526Y0158902D01*
X0281526Y0161316D01*
X0278205Y0164638D01*
X0322810Y0164638D01*
X0323991Y0163456D01*
X0329609Y0163456D01*
X0333581Y0167429D01*
X0333581Y0173046D01*
X0329609Y0177019D01*
X0329206Y0177019D01*
X0329206Y0178046D01*
X0325234Y0182019D01*
X0325144Y0182019D01*
X0325144Y0184609D01*
X0321171Y0188581D01*
X0315554Y0188581D01*
X0314373Y0187400D01*
X0225165Y0187400D01*
X0223984Y0188581D01*
X0218366Y0188581D01*
X0214394Y0184609D01*
X0214394Y0178991D01*
X0218366Y0175019D01*
X0219081Y0175019D01*
X0219081Y0172429D01*
X0223054Y0168456D01*
X0224081Y0168456D01*
X0224081Y0167429D01*
X0228054Y0163456D01*
X0233671Y0163456D01*
X0234852Y0164638D01*
X0263677Y0164638D01*
X0262871Y0162692D01*
X0262871Y0159589D01*
X0264058Y0156722D01*
X0270495Y0150285D01*
X0272909Y0149285D01*
X0281160Y0141034D01*
X0282160Y0138620D01*
X0288597Y0132183D01*
X0291464Y0130996D01*
X0295251Y0131279D02*
X0390701Y0131279D01*
X0390701Y0132878D02*
X0298128Y0132878D01*
X0299669Y0134476D02*
X0390701Y0134476D01*
X0390701Y0136075D02*
X0300331Y0136075D01*
X0300816Y0137673D02*
X0390701Y0137673D01*
X0390701Y0139272D02*
X0300816Y0139272D01*
X0300599Y0140870D02*
X0390701Y0140870D01*
X0390701Y0142469D02*
X0299937Y0142469D01*
X0298775Y0144068D02*
X0390701Y0144068D01*
X0390701Y0145666D02*
X0297176Y0145666D01*
X0295578Y0147265D02*
X0390701Y0147265D01*
X0390701Y0148863D02*
X0293979Y0148863D01*
X0291235Y0150462D02*
X0390701Y0150462D01*
X0390701Y0152060D02*
X0289368Y0152060D01*
X0287770Y0153659D02*
X0390701Y0153659D01*
X0390701Y0155257D02*
X0286171Y0155257D01*
X0284573Y0156856D02*
X0390701Y0156856D01*
X0390701Y0158454D02*
X0282974Y0158454D01*
X0282050Y0160053D02*
X0390701Y0160053D01*
X0390701Y0161651D02*
X0281191Y0161651D01*
X0279593Y0163250D02*
X0372660Y0163250D01*
X0373483Y0162774D02*
X0370907Y0164261D01*
X0368804Y0166364D01*
X0367317Y0168940D01*
X0366547Y0171813D01*
X0366547Y0174788D01*
X0367317Y0177661D01*
X0368804Y0180236D01*
X0370907Y0182339D01*
X0372299Y0183143D01*
X0370907Y0183946D01*
X0368804Y0186049D01*
X0367317Y0188625D01*
X0366547Y0191498D01*
X0366547Y0194473D01*
X0367317Y0197346D01*
X0368804Y0199921D01*
X0370907Y0202025D01*
X0372572Y0202985D01*
X0370907Y0203946D01*
X0368804Y0206049D01*
X0367317Y0208625D01*
X0366547Y0211498D01*
X0366547Y0214473D01*
X0367317Y0217346D01*
X0368804Y0219921D01*
X0370907Y0222025D01*
X0372572Y0222985D01*
X0370907Y0223946D01*
X0368804Y0226049D01*
X0367317Y0228625D01*
X0366547Y0231498D01*
X0366547Y0234473D01*
X0367317Y0237346D01*
X0368804Y0239921D01*
X0370907Y0242025D01*
X0373483Y0243512D01*
X0376356Y0244281D01*
X0379330Y0244281D01*
X0382203Y0243512D01*
X0384779Y0242025D01*
X0386882Y0239921D01*
X0388370Y0237346D01*
X0389139Y0234473D01*
X0389139Y0231498D01*
X0388370Y0228625D01*
X0386882Y0226049D01*
X0384779Y0223946D01*
X0383115Y0222985D01*
X0384779Y0222025D01*
X0386882Y0219921D01*
X0388370Y0217346D01*
X0389139Y0214473D01*
X0389139Y0211498D01*
X0388370Y0208625D01*
X0386882Y0206049D01*
X0384779Y0203946D01*
X0383115Y0202985D01*
X0384779Y0202025D01*
X0386882Y0199921D01*
X0388370Y0197346D01*
X0389139Y0194473D01*
X0389139Y0191498D01*
X0388370Y0188625D01*
X0386882Y0186049D01*
X0384779Y0183946D01*
X0383388Y0183143D01*
X0384779Y0182339D01*
X0386882Y0180236D01*
X0388370Y0177661D01*
X0389139Y0174788D01*
X0389139Y0171813D01*
X0388370Y0168940D01*
X0386882Y0166364D01*
X0384779Y0164261D01*
X0382203Y0162774D01*
X0379330Y0162004D01*
X0376356Y0162004D01*
X0373483Y0162774D01*
X0370320Y0164848D02*
X0331001Y0164848D01*
X0332599Y0166447D02*
X0368757Y0166447D01*
X0367834Y0168045D02*
X0333581Y0168045D01*
X0333581Y0169644D02*
X0367129Y0169644D01*
X0366700Y0171242D02*
X0333581Y0171242D01*
X0333581Y0172841D02*
X0366547Y0172841D01*
X0366547Y0174439D02*
X0332188Y0174439D01*
X0330590Y0176038D02*
X0366882Y0176038D01*
X0367311Y0177636D02*
X0329206Y0177636D01*
X0328018Y0179235D02*
X0368226Y0179235D01*
X0369401Y0180833D02*
X0326419Y0180833D01*
X0325144Y0182432D02*
X0371067Y0182432D01*
X0370823Y0184030D02*
X0325144Y0184030D01*
X0324124Y0185629D02*
X0369225Y0185629D01*
X0368124Y0187227D02*
X0322525Y0187227D01*
X0318363Y0181800D02*
X0221175Y0181800D01*
X0215414Y0185629D02*
X0201394Y0185629D01*
X0201394Y0187109D02*
X0201394Y0181491D01*
X0197421Y0177519D01*
X0191804Y0177519D01*
X0190623Y0178700D01*
X0177352Y0178700D01*
X0176171Y0177519D01*
X0170554Y0177519D01*
X0166581Y0181491D01*
X0166581Y0187109D01*
X0168220Y0188747D01*
X0166945Y0190022D01*
X0165513Y0190022D01*
X0162646Y0191210D01*
X0156210Y0197646D01*
X0155022Y0200513D01*
X0155022Y0203616D01*
X0156210Y0206483D01*
X0158404Y0208677D01*
X0161271Y0209865D01*
X0162093Y0209865D01*
X0162093Y0210687D01*
X0163281Y0213554D01*
X0165475Y0215748D01*
X0168342Y0216936D01*
X0169164Y0216936D01*
X0169164Y0217758D01*
X0170352Y0220625D01*
X0172546Y0222819D01*
X0175413Y0224007D01*
X0178516Y0224007D01*
X0181383Y0222819D01*
X0187819Y0216383D01*
X0189007Y0213516D01*
X0189007Y0210413D01*
X0187819Y0207546D01*
X0185625Y0205352D01*
X0182758Y0204164D01*
X0181936Y0204164D01*
X0181936Y0203342D01*
X0180748Y0200475D01*
X0178611Y0198337D01*
X0190623Y0198337D01*
X0191804Y0199519D01*
X0197421Y0199519D01*
X0201394Y0195546D01*
X0201394Y0189929D01*
X0199984Y0188519D01*
X0201394Y0187109D01*
X0201275Y0187227D02*
X0217012Y0187227D01*
X0214394Y0184030D02*
X0201394Y0184030D01*
X0201394Y0182432D02*
X0214394Y0182432D01*
X0214394Y0180833D02*
X0200736Y0180833D01*
X0199137Y0179235D02*
X0214394Y0179235D01*
X0215749Y0177636D02*
X0197539Y0177636D01*
X0191686Y0177636D02*
X0176289Y0177636D01*
X0170436Y0177636D02*
X0157910Y0177636D01*
X0157286Y0177012D02*
X0159480Y0179206D01*
X0160667Y0182073D01*
X0160667Y0185176D01*
X0159480Y0188043D01*
X0153043Y0194480D01*
X0150176Y0195667D01*
X0147073Y0195667D01*
X0144206Y0194480D01*
X0142012Y0192286D01*
X0140825Y0189419D01*
X0140825Y0188596D01*
X0140002Y0188596D01*
X0137135Y0187409D01*
X0134941Y0185215D01*
X0133754Y0182348D01*
X0133754Y0179245D01*
X0134941Y0176378D01*
X0141378Y0169941D01*
X0144245Y0168754D01*
X0147348Y0168754D01*
X0150215Y0169941D01*
X0152409Y0172135D01*
X0153596Y0175002D01*
X0153596Y0175825D01*
X0154419Y0175825D01*
X0157286Y0177012D01*
X0154933Y0176038D02*
X0217347Y0176038D01*
X0219081Y0174439D02*
X0153363Y0174439D01*
X0152701Y0172841D02*
X0219081Y0172841D01*
X0220268Y0171242D02*
X0151516Y0171242D01*
X0149496Y0169644D02*
X0221866Y0169644D01*
X0224081Y0168045D02*
X0006600Y0168045D01*
X0006600Y0166447D02*
X0225063Y0166447D01*
X0226662Y0164848D02*
X0097063Y0164848D01*
X0096455Y0165456D02*
X0090837Y0165456D01*
X0086865Y0161484D01*
X0086865Y0155866D01*
X0088046Y0154685D01*
X0088046Y0124540D01*
X0086865Y0123359D01*
X0086865Y0117741D01*
X0090837Y0113769D01*
X0091581Y0113769D01*
X0091581Y0113054D01*
X0095554Y0109081D01*
X0101171Y0109081D01*
X0105144Y0113054D01*
X0105144Y0118671D01*
X0103962Y0119852D01*
X0103962Y0144373D01*
X0105144Y0145554D01*
X0105144Y0151171D01*
X0101171Y0155144D01*
X0099705Y0155144D01*
X0100427Y0155866D01*
X0100427Y0161484D01*
X0096455Y0165456D01*
X0098661Y0163250D02*
X0263102Y0163250D01*
X0262871Y0161651D02*
X0100260Y0161651D01*
X0100427Y0160053D02*
X0262871Y0160053D01*
X0263341Y0158454D02*
X0100427Y0158454D01*
X0100427Y0156856D02*
X0264003Y0156856D01*
X0265524Y0155257D02*
X0099818Y0155257D01*
X0102656Y0153659D02*
X0267122Y0153659D01*
X0268721Y0152060D02*
X0104255Y0152060D01*
X0105144Y0150462D02*
X0270319Y0150462D01*
X0273332Y0148863D02*
X0105144Y0148863D01*
X0105144Y0147265D02*
X0274930Y0147265D01*
X0276529Y0145666D02*
X0105144Y0145666D01*
X0103962Y0144068D02*
X0278127Y0144068D01*
X0279726Y0142469D02*
X0103962Y0142469D01*
X0103962Y0140870D02*
X0281228Y0140870D01*
X0281890Y0139272D02*
X0103962Y0139272D01*
X0103962Y0137673D02*
X0283107Y0137673D01*
X0284706Y0136075D02*
X0103962Y0136075D01*
X0103962Y0134476D02*
X0286304Y0134476D01*
X0287903Y0132878D02*
X0103962Y0132878D01*
X0103962Y0124885D02*
X0240295Y0124885D01*
X0238697Y0123287D02*
X0103962Y0123287D01*
X0103962Y0121688D02*
X0237098Y0121688D01*
X0236581Y0120090D02*
X0103962Y0120090D01*
X0105144Y0118491D02*
X0236581Y0118491D01*
X0236581Y0116893D02*
X0105144Y0116893D01*
X0105144Y0115294D02*
X0236841Y0115294D01*
X0237762Y0113696D02*
X0105144Y0113696D01*
X0104187Y0112097D02*
X0237762Y0112097D01*
X0237397Y0110499D02*
X0102589Y0110499D01*
X0098362Y0115862D02*
X0098362Y0148363D01*
X0088046Y0148863D02*
X0006600Y0148863D01*
X0006600Y0147265D02*
X0088046Y0147265D01*
X0088046Y0145666D02*
X0006600Y0145666D01*
X0006600Y0144068D02*
X0088046Y0144068D01*
X0088046Y0142469D02*
X0006600Y0142469D01*
X0006600Y0140870D02*
X0088046Y0140870D01*
X0088046Y0139272D02*
X0006600Y0139272D01*
X0006600Y0137673D02*
X0088046Y0137673D01*
X0088046Y0136075D02*
X0006600Y0136075D01*
X0006600Y0134476D02*
X0088046Y0134476D01*
X0088046Y0132878D02*
X0006600Y0132878D01*
X0006600Y0131279D02*
X0088046Y0131279D01*
X0088046Y0129681D02*
X0006600Y0129681D01*
X0006600Y0128082D02*
X0088046Y0128082D01*
X0088046Y0126484D02*
X0006600Y0126484D01*
X0006600Y0124885D02*
X0088046Y0124885D01*
X0086865Y0123287D02*
X0006600Y0123287D01*
X0006600Y0121688D02*
X0086865Y0121688D01*
X0086865Y0120090D02*
X0006600Y0120090D01*
X0006600Y0118491D02*
X0086865Y0118491D01*
X0087713Y0116893D02*
X0006600Y0116893D01*
X0006600Y0115294D02*
X0089312Y0115294D01*
X0091581Y0113696D02*
X0006600Y0113696D01*
X0008790Y0112097D02*
X0092538Y0112097D01*
X0094136Y0110499D02*
X0010773Y0110499D01*
X0011431Y0109841D02*
X0011431Y0109841D01*
X0011821Y0108900D02*
X0235798Y0108900D01*
X0235464Y0107302D02*
X0012483Y0107302D01*
X0012505Y0105703D02*
X0232601Y0105703D01*
X0231003Y0104105D02*
X0012505Y0104105D01*
X0012505Y0102506D02*
X0229404Y0102506D01*
X0228393Y0100908D02*
X0025814Y0100908D01*
X0025267Y0101455D02*
X0023068Y0102365D01*
X0020689Y0102365D01*
X0018491Y0101455D01*
X0016808Y0099772D01*
X0015898Y0097574D01*
X0015898Y0095194D01*
X0016808Y0092996D01*
X0018491Y0091314D01*
X0020689Y0090403D01*
X0023068Y0090403D01*
X0025267Y0091314D01*
X0026949Y0092996D01*
X0027860Y0095194D01*
X0027860Y0097574D01*
X0026949Y0099772D01*
X0025267Y0101455D01*
X0027141Y0099309D02*
X0228393Y0099309D01*
X0228393Y0097711D02*
X0027803Y0097711D01*
X0027860Y0096112D02*
X0228393Y0096112D01*
X0228913Y0094514D02*
X0027578Y0094514D01*
X0026868Y0092915D02*
X0230512Y0092915D01*
X0232110Y0091317D02*
X0025270Y0091317D01*
X0023068Y0086617D02*
X0020689Y0086617D01*
X0018491Y0085707D01*
X0016808Y0084024D01*
X0015898Y0081826D01*
X0015898Y0079446D01*
X0016808Y0077248D01*
X0018491Y0075566D01*
X0020689Y0074655D01*
X0023068Y0074655D01*
X0025267Y0075566D01*
X0026949Y0077248D01*
X0027860Y0079446D01*
X0027860Y0081826D01*
X0026949Y0084024D01*
X0025267Y0085707D01*
X0023068Y0086617D01*
X0023300Y0086521D02*
X0094128Y0086521D01*
X0095320Y0087712D02*
X0090575Y0082968D01*
X0090575Y0076257D01*
X0095320Y0071513D01*
X0102030Y0071513D01*
X0106775Y0076257D01*
X0106775Y0082968D01*
X0102030Y0087712D01*
X0095320Y0087712D01*
X0092530Y0084923D02*
X0026051Y0084923D01*
X0027239Y0083324D02*
X0090931Y0083324D01*
X0090575Y0081726D02*
X0027860Y0081726D01*
X0027860Y0080127D02*
X0090575Y0080127D01*
X0090575Y0078529D02*
X0027480Y0078529D01*
X0026631Y0076930D02*
X0090575Y0076930D01*
X0091501Y0075332D02*
X0024702Y0075332D01*
X0019056Y0075332D02*
X0012505Y0075332D01*
X0012505Y0076930D02*
X0017126Y0076930D01*
X0016278Y0078529D02*
X0012505Y0078529D01*
X0012505Y0080127D02*
X0015898Y0080127D01*
X0015898Y0081726D02*
X0012505Y0081726D01*
X0012505Y0083324D02*
X0016518Y0083324D01*
X0017707Y0084923D02*
X0012505Y0084923D01*
X0012505Y0086521D02*
X0020457Y0086521D01*
X0018488Y0091317D02*
X0012505Y0091317D01*
X0012505Y0092915D02*
X0016889Y0092915D01*
X0016180Y0094514D02*
X0012505Y0094514D01*
X0012505Y0096112D02*
X0015898Y0096112D01*
X0015954Y0097711D02*
X0012505Y0097711D01*
X0012505Y0099309D02*
X0016616Y0099309D01*
X0017944Y0100908D02*
X0012505Y0100908D01*
X0012505Y0089718D02*
X0234437Y0089718D01*
X0235307Y0088120D02*
X0012505Y0088120D01*
X0012505Y0073733D02*
X0093099Y0073733D01*
X0094698Y0072134D02*
X0012505Y0072134D01*
X0012505Y0070536D02*
X0200956Y0070536D01*
X0200956Y0072134D02*
X0102652Y0072134D01*
X0104251Y0073733D02*
X0200956Y0073733D01*
X0201679Y0075332D02*
X0105849Y0075332D01*
X0106775Y0076930D02*
X0203278Y0076930D01*
X0204876Y0078529D02*
X0106775Y0078529D01*
X0106775Y0080127D02*
X0205644Y0080127D01*
X0206823Y0081726D02*
X0106775Y0081726D01*
X0106419Y0083324D02*
X0208422Y0083324D01*
X0212425Y0077738D02*
X0277113Y0077738D01*
X0271800Y0071800D02*
X0207737Y0071800D01*
X0202609Y0067339D02*
X0011559Y0067339D01*
X0012221Y0068937D02*
X0201010Y0068937D01*
X0204207Y0065740D02*
X0010152Y0065740D01*
X0009423Y0065011D02*
X0009423Y0065011D01*
X0007324Y0064142D02*
X0216427Y0064142D01*
X0215331Y0062543D02*
X0006600Y0062543D01*
X0006600Y0060945D02*
X0215331Y0060945D01*
X0215331Y0059346D02*
X0061272Y0059346D01*
X0061202Y0059387D02*
X0058379Y0060143D01*
X0055457Y0060143D01*
X0052634Y0059387D01*
X0050103Y0057926D01*
X0048037Y0055859D01*
X0046575Y0053328D01*
X0045819Y0050505D01*
X0045819Y0047583D01*
X0046575Y0044760D01*
X0048037Y0042229D01*
X0050103Y0040163D01*
X0052634Y0038701D01*
X0055457Y0037945D01*
X0058379Y0037945D01*
X0061202Y0038701D01*
X0063733Y0040163D01*
X0065800Y0042229D01*
X0067261Y0044760D01*
X0068017Y0047583D01*
X0068017Y0050505D01*
X0067261Y0053328D01*
X0065800Y0055859D01*
X0063733Y0057926D01*
X0061202Y0059387D01*
X0063911Y0057748D02*
X0215331Y0057748D01*
X0216611Y0056149D02*
X0065509Y0056149D01*
X0066555Y0054551D02*
X0217298Y0054551D01*
X0218802Y0052952D02*
X0067362Y0052952D01*
X0067790Y0051354D02*
X0220401Y0051354D01*
X0221999Y0049755D02*
X0068017Y0049755D01*
X0068017Y0048157D02*
X0223598Y0048157D01*
X0225197Y0046558D02*
X0067743Y0046558D01*
X0067314Y0044960D02*
X0226795Y0044960D01*
X0228394Y0043361D02*
X0066453Y0043361D01*
X0065333Y0041763D02*
X0229992Y0041763D01*
X0231591Y0040164D02*
X0063735Y0040164D01*
X0060696Y0038566D02*
X0256329Y0038566D01*
X0255281Y0036967D02*
X0006600Y0036967D01*
X0006600Y0035369D02*
X0255281Y0035369D01*
X0255281Y0033770D02*
X0006600Y0033770D01*
X0006600Y0038566D02*
X0053140Y0038566D01*
X0050101Y0040164D02*
X0006600Y0040164D01*
X0006600Y0041763D02*
X0048503Y0041763D01*
X0047383Y0043361D02*
X0006600Y0043361D01*
X0006600Y0044960D02*
X0046522Y0044960D01*
X0046093Y0046558D02*
X0006600Y0046558D01*
X0006600Y0048157D02*
X0045819Y0048157D01*
X0045819Y0049755D02*
X0006600Y0049755D01*
X0006600Y0051354D02*
X0046046Y0051354D01*
X0046475Y0052952D02*
X0006600Y0052952D01*
X0006600Y0054551D02*
X0047281Y0054551D01*
X0048327Y0056149D02*
X0006600Y0056149D01*
X0006600Y0057748D02*
X0049925Y0057748D01*
X0052564Y0059346D02*
X0006600Y0059346D01*
X0093646Y0120550D02*
X0093646Y0158675D01*
X0087474Y0155257D02*
X0006600Y0155257D01*
X0006600Y0153659D02*
X0088046Y0153659D01*
X0088046Y0152060D02*
X0006600Y0152060D01*
X0006600Y0150462D02*
X0088046Y0150462D01*
X0086865Y0156856D02*
X0006600Y0156856D01*
X0006600Y0158454D02*
X0086865Y0158454D01*
X0086865Y0160053D02*
X0006600Y0160053D01*
X0006600Y0161651D02*
X0087032Y0161651D01*
X0088631Y0163250D02*
X0006600Y0163250D01*
X0006600Y0164848D02*
X0090229Y0164848D01*
X0084125Y0173219D02*
X0080780Y0171834D01*
X0077160Y0171834D01*
X0073816Y0173219D01*
X0071256Y0175779D01*
X0069870Y0179124D01*
X0069870Y0182744D01*
X0071256Y0186089D01*
X0073816Y0188648D01*
X0077160Y0190034D01*
X0080780Y0190034D01*
X0084125Y0188648D01*
X0086685Y0186089D01*
X0088070Y0182744D01*
X0088070Y0179124D01*
X0086685Y0175779D01*
X0084125Y0173219D01*
X0083211Y0172841D02*
X0138478Y0172841D01*
X0136880Y0174439D02*
X0085345Y0174439D01*
X0086792Y0176038D02*
X0135281Y0176038D01*
X0134420Y0177636D02*
X0087454Y0177636D01*
X0088070Y0179235D02*
X0133758Y0179235D01*
X0133754Y0180833D02*
X0088070Y0180833D01*
X0088070Y0182432D02*
X0133788Y0182432D01*
X0134451Y0184030D02*
X0087537Y0184030D01*
X0086875Y0185629D02*
X0135355Y0185629D01*
X0136954Y0187227D02*
X0085546Y0187227D01*
X0083697Y0188826D02*
X0140825Y0188826D01*
X0141241Y0190424D02*
X0030567Y0190424D01*
X0030810Y0191332D02*
X0030040Y0188459D01*
X0028553Y0185883D01*
X0026450Y0183780D01*
X0023874Y0182293D01*
X0021001Y0181523D01*
X0018027Y0181523D01*
X0015154Y0182293D01*
X0012578Y0183780D01*
X0010475Y0185883D01*
X0008988Y0188459D01*
X0008218Y0191332D01*
X0008218Y0194306D01*
X0008988Y0197179D01*
X0010475Y0199755D01*
X0012578Y0201858D01*
X0014242Y0202819D01*
X0012578Y0203780D01*
X0010475Y0205883D01*
X0008988Y0208459D01*
X0008218Y0211332D01*
X0008218Y0214306D01*
X0008988Y0217179D01*
X0010475Y0219755D01*
X0012578Y0221858D01*
X0015154Y0223346D01*
X0018027Y0224115D01*
X0021001Y0224115D01*
X0023874Y0223346D01*
X0026450Y0221858D01*
X0028553Y0219755D01*
X0030040Y0217179D01*
X0030810Y0214306D01*
X0030810Y0211332D01*
X0030040Y0208459D01*
X0028553Y0205883D01*
X0026450Y0203780D01*
X0024786Y0202819D01*
X0026450Y0201858D01*
X0028553Y0199755D01*
X0030040Y0197179D01*
X0030810Y0194306D01*
X0030810Y0191332D01*
X0030810Y0192023D02*
X0141903Y0192023D01*
X0143348Y0193621D02*
X0030810Y0193621D01*
X0030565Y0195220D02*
X0145993Y0195220D01*
X0151257Y0195220D02*
X0158636Y0195220D01*
X0157038Y0196818D02*
X0030137Y0196818D01*
X0029326Y0198417D02*
X0155890Y0198417D01*
X0155228Y0200015D02*
X0028293Y0200015D01*
X0026694Y0201614D02*
X0155022Y0201614D01*
X0155022Y0203212D02*
X0025467Y0203212D01*
X0027481Y0204811D02*
X0155517Y0204811D01*
X0156179Y0206409D02*
X0028857Y0206409D01*
X0029780Y0208008D02*
X0052607Y0208008D01*
X0052634Y0207993D02*
X0055457Y0207236D01*
X0058379Y0207236D01*
X0061202Y0207993D01*
X0063733Y0209454D01*
X0065800Y0211520D01*
X0067261Y0214051D01*
X0068017Y0216874D01*
X0068017Y0219797D01*
X0067261Y0222620D01*
X0065800Y0225151D01*
X0063733Y0227217D01*
X0061202Y0228678D01*
X0058379Y0229435D01*
X0055457Y0229435D01*
X0052634Y0228678D01*
X0050103Y0227217D01*
X0048037Y0225151D01*
X0046575Y0222620D01*
X0045819Y0219797D01*
X0045819Y0216874D01*
X0046575Y0214051D01*
X0048037Y0211520D01*
X0050103Y0209454D01*
X0052634Y0207993D01*
X0049950Y0209606D02*
X0030348Y0209606D01*
X0030776Y0211205D02*
X0048352Y0211205D01*
X0047296Y0212803D02*
X0030810Y0212803D01*
X0030785Y0214402D02*
X0046481Y0214402D01*
X0046053Y0216001D02*
X0030356Y0216001D01*
X0029798Y0217599D02*
X0045819Y0217599D01*
X0045819Y0219198D02*
X0028875Y0219198D01*
X0027512Y0220796D02*
X0046087Y0220796D01*
X0046515Y0222395D02*
X0025521Y0222395D01*
X0021458Y0223993D02*
X0047368Y0223993D01*
X0048478Y0225592D02*
X0006600Y0225592D01*
X0006600Y0227190D02*
X0050076Y0227190D01*
X0053046Y0228789D02*
X0006600Y0228789D01*
X0006600Y0230387D02*
X0366845Y0230387D01*
X0366547Y0231986D02*
X0006600Y0231986D01*
X0006600Y0233584D02*
X0366547Y0233584D01*
X0366738Y0235183D02*
X0006600Y0235183D01*
X0006600Y0236781D02*
X0367166Y0236781D01*
X0367914Y0238380D02*
X0006600Y0238380D01*
X0006600Y0239978D02*
X0368861Y0239978D01*
X0370460Y0241577D02*
X0006600Y0241577D01*
X0006600Y0243175D02*
X0372900Y0243175D01*
X0368741Y0249569D02*
X0390701Y0249569D01*
X0390701Y0247971D02*
X0006600Y0247971D01*
X0006600Y0249569D02*
X0008590Y0249569D01*
X0006600Y0246372D02*
X0390701Y0246372D01*
X0390701Y0244774D02*
X0006600Y0244774D01*
X0018702Y0249569D02*
X0048590Y0249569D01*
X0049286Y0249167D02*
X0052159Y0248398D01*
X0055133Y0248398D01*
X0058006Y0249167D01*
X0060582Y0250655D01*
X0062685Y0252758D01*
X0064172Y0255334D01*
X0064942Y0258207D01*
X0064942Y0261181D01*
X0064172Y0264054D01*
X0062685Y0266630D01*
X0060582Y0268733D01*
X0058006Y0270220D01*
X0055133Y0270990D01*
X0052159Y0270990D01*
X0049286Y0270220D01*
X0046710Y0268733D01*
X0044607Y0266630D01*
X0043120Y0264054D01*
X0042350Y0261181D01*
X0042350Y0258207D01*
X0043120Y0255334D01*
X0044607Y0252758D01*
X0046710Y0250655D01*
X0049286Y0249167D01*
X0046197Y0251168D02*
X0021095Y0251168D01*
X0022690Y0252766D02*
X0044602Y0252766D01*
X0043679Y0254365D02*
X0023613Y0254365D01*
X0024341Y0255963D02*
X0042951Y0255963D01*
X0042523Y0257562D02*
X0024769Y0257562D01*
X0024942Y0259160D02*
X0042350Y0259160D01*
X0042350Y0260759D02*
X0024942Y0260759D01*
X0024627Y0262357D02*
X0042665Y0262357D01*
X0043094Y0263956D02*
X0024199Y0263956D01*
X0023306Y0265554D02*
X0043986Y0265554D01*
X0045130Y0267153D02*
X0022162Y0267153D01*
X0020550Y0268751D02*
X0046742Y0268751D01*
X0049771Y0270350D02*
X0017521Y0270350D01*
X0009771Y0270350D02*
X0006600Y0270350D01*
X0006600Y0271948D02*
X0390701Y0271948D01*
X0390701Y0270350D02*
X0367561Y0270350D01*
X0368046Y0270220D02*
X0365173Y0270990D01*
X0362198Y0270990D01*
X0359325Y0270220D01*
X0356749Y0268733D01*
X0354646Y0266630D01*
X0353685Y0264965D01*
X0352725Y0266630D01*
X0350621Y0268733D01*
X0348046Y0270220D01*
X0345173Y0270990D01*
X0342198Y0270990D01*
X0339325Y0270220D01*
X0336749Y0268733D01*
X0334646Y0266630D01*
X0333685Y0264965D01*
X0332725Y0266630D01*
X0330621Y0268733D01*
X0328046Y0270220D01*
X0325173Y0270990D01*
X0322198Y0270990D01*
X0319325Y0270220D01*
X0316749Y0268733D01*
X0314646Y0266630D01*
X0313159Y0264054D01*
X0312389Y0261181D01*
X0312389Y0258207D01*
X0313159Y0255334D01*
X0314646Y0252758D01*
X0316749Y0250655D01*
X0319325Y0249167D01*
X0322198Y0248398D01*
X0325173Y0248398D01*
X0328046Y0249167D01*
X0330621Y0250655D01*
X0332725Y0252758D01*
X0333685Y0254422D01*
X0334646Y0252758D01*
X0336749Y0250655D01*
X0339325Y0249167D01*
X0342198Y0248398D01*
X0345173Y0248398D01*
X0348046Y0249167D01*
X0350621Y0250655D01*
X0352725Y0252758D01*
X0353685Y0254422D01*
X0354646Y0252758D01*
X0356749Y0250655D01*
X0359325Y0249167D01*
X0362198Y0248398D01*
X0365173Y0248398D01*
X0368046Y0249167D01*
X0370621Y0250655D01*
X0372725Y0252758D01*
X0374212Y0255334D01*
X0374981Y0258207D01*
X0374981Y0261181D01*
X0374212Y0264054D01*
X0372725Y0266630D01*
X0370621Y0268733D01*
X0368046Y0270220D01*
X0370589Y0268751D02*
X0390701Y0268751D01*
X0390701Y0267153D02*
X0372201Y0267153D01*
X0373345Y0265554D02*
X0390701Y0265554D01*
X0390701Y0263956D02*
X0374238Y0263956D01*
X0374666Y0262357D02*
X0390701Y0262357D01*
X0390701Y0260759D02*
X0374981Y0260759D01*
X0374981Y0259160D02*
X0390701Y0259160D01*
X0390701Y0257562D02*
X0374809Y0257562D01*
X0374380Y0255963D02*
X0390701Y0255963D01*
X0390701Y0254365D02*
X0373652Y0254365D01*
X0372729Y0252766D02*
X0390701Y0252766D01*
X0390701Y0251168D02*
X0371135Y0251168D01*
X0358629Y0249569D02*
X0348741Y0249569D01*
X0351135Y0251168D02*
X0356236Y0251168D01*
X0354641Y0252766D02*
X0352729Y0252766D01*
X0353652Y0254365D02*
X0353719Y0254365D01*
X0354026Y0265554D02*
X0353345Y0265554D01*
X0352201Y0267153D02*
X0355170Y0267153D01*
X0356782Y0268751D02*
X0350589Y0268751D01*
X0347561Y0270350D02*
X0359810Y0270350D01*
X0339810Y0270350D02*
X0327561Y0270350D01*
X0330589Y0268751D02*
X0336782Y0268751D01*
X0335170Y0267153D02*
X0332201Y0267153D01*
X0333345Y0265554D02*
X0334026Y0265554D01*
X0333719Y0254365D02*
X0333652Y0254365D01*
X0332729Y0252766D02*
X0334641Y0252766D01*
X0336236Y0251168D02*
X0331135Y0251168D01*
X0328741Y0249569D02*
X0338629Y0249569D01*
X0318629Y0249569D02*
X0288673Y0249569D01*
X0288046Y0249207D02*
X0290621Y0250694D01*
X0292725Y0252797D01*
X0294212Y0255373D01*
X0294981Y0258246D01*
X0294981Y0261220D01*
X0294212Y0264093D01*
X0292725Y0266669D01*
X0290621Y0268772D01*
X0288046Y0270259D01*
X0285173Y0271029D01*
X0282198Y0271029D01*
X0279325Y0270259D01*
X0276749Y0268772D01*
X0274646Y0266669D01*
X0273159Y0264093D01*
X0272389Y0261220D01*
X0272389Y0258246D01*
X0273159Y0255373D01*
X0274646Y0252797D01*
X0276749Y0250694D01*
X0279325Y0249207D01*
X0282198Y0248437D01*
X0285173Y0248437D01*
X0288046Y0249207D01*
X0291095Y0251168D02*
X0316236Y0251168D01*
X0314641Y0252766D02*
X0292694Y0252766D01*
X0293630Y0254365D02*
X0313719Y0254365D01*
X0312990Y0255963D02*
X0294370Y0255963D01*
X0294798Y0257562D02*
X0312562Y0257562D01*
X0312389Y0259160D02*
X0294981Y0259160D01*
X0294981Y0260759D02*
X0312389Y0260759D01*
X0312705Y0262357D02*
X0294677Y0262357D01*
X0294248Y0263956D02*
X0313133Y0263956D01*
X0314026Y0265554D02*
X0293368Y0265554D01*
X0292241Y0267153D02*
X0315170Y0267153D01*
X0316782Y0268751D02*
X0290642Y0268751D01*
X0287707Y0270350D02*
X0319810Y0270350D01*
X0279663Y0270350D02*
X0247707Y0270350D01*
X0248046Y0270259D02*
X0245173Y0271029D01*
X0242198Y0271029D01*
X0239325Y0270259D01*
X0236749Y0268772D01*
X0234646Y0266669D01*
X0233159Y0264093D01*
X0232389Y0261220D01*
X0232389Y0258246D01*
X0233159Y0255373D01*
X0234646Y0252797D01*
X0236749Y0250694D01*
X0239325Y0249207D01*
X0242198Y0248437D01*
X0245173Y0248437D01*
X0248046Y0249207D01*
X0250621Y0250694D01*
X0252725Y0252797D01*
X0254212Y0255373D01*
X0254981Y0258246D01*
X0254981Y0261220D01*
X0254212Y0264093D01*
X0252725Y0266669D01*
X0250621Y0268772D01*
X0248046Y0270259D01*
X0250642Y0268751D02*
X0276729Y0268751D01*
X0275130Y0267153D02*
X0252241Y0267153D01*
X0253368Y0265554D02*
X0274003Y0265554D01*
X0273122Y0263956D02*
X0254248Y0263956D01*
X0254677Y0262357D02*
X0272694Y0262357D01*
X0272389Y0260759D02*
X0254981Y0260759D01*
X0254981Y0259160D02*
X0272389Y0259160D01*
X0272573Y0257562D02*
X0254798Y0257562D01*
X0254370Y0255963D02*
X0273001Y0255963D01*
X0273741Y0254365D02*
X0253630Y0254365D01*
X0252694Y0252766D02*
X0274677Y0252766D01*
X0276276Y0251168D02*
X0251095Y0251168D01*
X0248673Y0249569D02*
X0278698Y0249569D01*
X0238698Y0249569D02*
X0138702Y0249569D01*
X0138006Y0249167D02*
X0140582Y0250655D01*
X0142685Y0252758D01*
X0144172Y0255334D01*
X0144942Y0258207D01*
X0144942Y0261181D01*
X0144172Y0264054D01*
X0142685Y0266630D01*
X0140582Y0268733D01*
X0138006Y0270220D01*
X0135133Y0270990D01*
X0132159Y0270990D01*
X0129286Y0270220D01*
X0126710Y0268733D01*
X0124607Y0266630D01*
X0123120Y0264054D01*
X0122350Y0261181D01*
X0122350Y0258207D01*
X0123120Y0255334D01*
X0124607Y0252758D01*
X0126710Y0250655D01*
X0129286Y0249167D01*
X0132159Y0248398D01*
X0135133Y0248398D01*
X0138006Y0249167D01*
X0141095Y0251168D02*
X0236276Y0251168D01*
X0234677Y0252766D02*
X0142690Y0252766D01*
X0143613Y0254365D02*
X0233741Y0254365D01*
X0233001Y0255963D02*
X0144341Y0255963D01*
X0144769Y0257562D02*
X0232573Y0257562D01*
X0232389Y0259160D02*
X0144942Y0259160D01*
X0144942Y0260759D02*
X0232389Y0260759D01*
X0232694Y0262357D02*
X0144627Y0262357D01*
X0144199Y0263956D02*
X0233122Y0263956D01*
X0234003Y0265554D02*
X0143306Y0265554D01*
X0142162Y0267153D02*
X0235130Y0267153D01*
X0236729Y0268751D02*
X0140550Y0268751D01*
X0137521Y0270350D02*
X0239663Y0270350D01*
X0178549Y0223993D02*
X0330833Y0223993D01*
X0331501Y0225151D02*
X0330040Y0222620D01*
X0329283Y0219797D01*
X0329283Y0216874D01*
X0330040Y0214051D01*
X0331501Y0211520D01*
X0333568Y0209454D01*
X0336099Y0207993D01*
X0338921Y0207236D01*
X0341844Y0207236D01*
X0344667Y0207993D01*
X0347198Y0209454D01*
X0349264Y0211520D01*
X0350725Y0214051D01*
X0351482Y0216874D01*
X0351482Y0219797D01*
X0350725Y0222620D01*
X0349264Y0225151D01*
X0347198Y0227217D01*
X0344667Y0228678D01*
X0341844Y0229435D01*
X0338921Y0229435D01*
X0336099Y0228678D01*
X0333568Y0227217D01*
X0331501Y0225151D01*
X0331942Y0225592D02*
X0065359Y0225592D01*
X0066468Y0223993D02*
X0175379Y0223993D01*
X0172121Y0222395D02*
X0067321Y0222395D01*
X0067750Y0220796D02*
X0170523Y0220796D01*
X0169760Y0219198D02*
X0068017Y0219198D01*
X0068017Y0217599D02*
X0169164Y0217599D01*
X0166084Y0216001D02*
X0067783Y0216001D01*
X0067355Y0214402D02*
X0164129Y0214402D01*
X0162970Y0212803D02*
X0066540Y0212803D01*
X0065484Y0211205D02*
X0162308Y0211205D01*
X0160647Y0209606D02*
X0063886Y0209606D01*
X0061229Y0208008D02*
X0157734Y0208008D01*
X0164943Y0199943D02*
X0172149Y0192737D01*
X0194612Y0192737D01*
X0201394Y0192023D02*
X0366547Y0192023D01*
X0366547Y0193621D02*
X0201394Y0193621D01*
X0201394Y0195220D02*
X0366747Y0195220D01*
X0367176Y0196818D02*
X0200122Y0196818D01*
X0198523Y0198417D02*
X0367936Y0198417D01*
X0368898Y0200015D02*
X0180289Y0200015D01*
X0181220Y0201614D02*
X0370497Y0201614D01*
X0372179Y0203212D02*
X0181882Y0203212D01*
X0184320Y0204811D02*
X0370043Y0204811D01*
X0368596Y0206409D02*
X0186683Y0206409D01*
X0188011Y0208008D02*
X0336072Y0208008D01*
X0333415Y0209606D02*
X0188673Y0209606D01*
X0189007Y0211205D02*
X0331816Y0211205D01*
X0330760Y0212803D02*
X0189007Y0212803D01*
X0188640Y0214402D02*
X0329946Y0214402D01*
X0329518Y0216001D02*
X0187978Y0216001D01*
X0186603Y0217599D02*
X0329283Y0217599D01*
X0329283Y0219198D02*
X0185004Y0219198D01*
X0183406Y0220796D02*
X0329551Y0220796D01*
X0329980Y0222395D02*
X0181807Y0222395D01*
X0178690Y0198417D02*
X0190702Y0198417D01*
X0201394Y0190424D02*
X0366835Y0190424D01*
X0367263Y0188826D02*
X0200291Y0188826D01*
X0194612Y0184300D02*
X0173362Y0184300D01*
X0168141Y0188826D02*
X0158697Y0188826D01*
X0159818Y0187227D02*
X0166700Y0187227D01*
X0166581Y0185629D02*
X0160480Y0185629D01*
X0160667Y0184030D02*
X0166581Y0184030D01*
X0166581Y0182432D02*
X0160667Y0182432D01*
X0160154Y0180833D02*
X0167239Y0180833D01*
X0168838Y0179235D02*
X0159492Y0179235D01*
X0157099Y0190424D02*
X0164542Y0190424D01*
X0161833Y0192023D02*
X0155500Y0192023D01*
X0153902Y0193621D02*
X0160235Y0193621D01*
X0140077Y0171242D02*
X0006600Y0171242D01*
X0006600Y0169644D02*
X0142096Y0169644D01*
X0074729Y0172841D02*
X0060675Y0172841D01*
X0060399Y0172565D02*
X0061749Y0173915D01*
X0062480Y0175679D01*
X0062480Y0186189D01*
X0061749Y0187953D01*
X0060399Y0189303D01*
X0058634Y0190034D01*
X0048125Y0190034D01*
X0046361Y0189303D01*
X0045010Y0187953D01*
X0044280Y0186189D01*
X0044280Y0175679D01*
X0045010Y0173915D01*
X0046361Y0172565D01*
X0048125Y0171834D01*
X0058634Y0171834D01*
X0060399Y0172565D01*
X0061966Y0174439D02*
X0072596Y0174439D01*
X0071149Y0176038D02*
X0062480Y0176038D01*
X0062480Y0177636D02*
X0070486Y0177636D01*
X0069870Y0179235D02*
X0062480Y0179235D01*
X0062480Y0180833D02*
X0069870Y0180833D01*
X0069870Y0182432D02*
X0062480Y0182432D01*
X0062480Y0184030D02*
X0070403Y0184030D01*
X0071065Y0185629D02*
X0062480Y0185629D01*
X0062049Y0187227D02*
X0072394Y0187227D01*
X0074244Y0188826D02*
X0060876Y0188826D01*
X0045883Y0188826D02*
X0030139Y0188826D01*
X0029329Y0187227D02*
X0044710Y0187227D01*
X0044280Y0185629D02*
X0028299Y0185629D01*
X0026700Y0184030D02*
X0044280Y0184030D01*
X0044280Y0182432D02*
X0024114Y0182432D01*
X0014914Y0182432D02*
X0006600Y0182432D01*
X0006600Y0184030D02*
X0012328Y0184030D01*
X0010730Y0185629D02*
X0006600Y0185629D01*
X0006600Y0187227D02*
X0009699Y0187227D01*
X0008890Y0188826D02*
X0006600Y0188826D01*
X0006600Y0190424D02*
X0008461Y0190424D01*
X0008218Y0192023D02*
X0006600Y0192023D01*
X0006600Y0193621D02*
X0008218Y0193621D01*
X0008463Y0195220D02*
X0006600Y0195220D01*
X0006600Y0196818D02*
X0008891Y0196818D01*
X0009702Y0198417D02*
X0006600Y0198417D01*
X0006600Y0200015D02*
X0010735Y0200015D01*
X0012334Y0201614D02*
X0006600Y0201614D01*
X0006600Y0203212D02*
X0013562Y0203212D01*
X0011547Y0204811D02*
X0006600Y0204811D01*
X0006600Y0206409D02*
X0010171Y0206409D01*
X0009248Y0208008D02*
X0006600Y0208008D01*
X0006600Y0209606D02*
X0008680Y0209606D01*
X0008252Y0211205D02*
X0006600Y0211205D01*
X0006600Y0212803D02*
X0008218Y0212803D01*
X0008244Y0214402D02*
X0006600Y0214402D01*
X0006600Y0216001D02*
X0008672Y0216001D01*
X0009230Y0217599D02*
X0006600Y0217599D01*
X0006600Y0219198D02*
X0010153Y0219198D01*
X0011516Y0220796D02*
X0006600Y0220796D01*
X0006600Y0222395D02*
X0013507Y0222395D01*
X0017571Y0223993D02*
X0006600Y0223993D01*
X0058702Y0249569D02*
X0088590Y0249569D01*
X0089286Y0249167D02*
X0092159Y0248398D01*
X0095133Y0248398D01*
X0098006Y0249167D01*
X0100582Y0250655D01*
X0102685Y0252758D01*
X0104172Y0255334D01*
X0104942Y0258207D01*
X0104942Y0261181D01*
X0104172Y0264054D01*
X0102685Y0266630D01*
X0100582Y0268733D01*
X0098006Y0270220D01*
X0095133Y0270990D01*
X0092159Y0270990D01*
X0089286Y0270220D01*
X0086710Y0268733D01*
X0084607Y0266630D01*
X0083120Y0264054D01*
X0082350Y0261181D01*
X0082350Y0258207D01*
X0083120Y0255334D01*
X0084607Y0252758D01*
X0086710Y0250655D01*
X0089286Y0249167D01*
X0086197Y0251168D02*
X0061095Y0251168D01*
X0062690Y0252766D02*
X0084602Y0252766D01*
X0083679Y0254365D02*
X0063613Y0254365D01*
X0064341Y0255963D02*
X0082951Y0255963D01*
X0082523Y0257562D02*
X0064769Y0257562D01*
X0064942Y0259160D02*
X0082350Y0259160D01*
X0082350Y0260759D02*
X0064942Y0260759D01*
X0064627Y0262357D02*
X0082665Y0262357D01*
X0083094Y0263956D02*
X0064199Y0263956D01*
X0063306Y0265554D02*
X0083986Y0265554D01*
X0085130Y0267153D02*
X0062162Y0267153D01*
X0060550Y0268751D02*
X0086742Y0268751D01*
X0089771Y0270350D02*
X0057521Y0270350D01*
X0097521Y0270350D02*
X0129771Y0270350D01*
X0126742Y0268751D02*
X0100550Y0268751D01*
X0102162Y0267153D02*
X0125130Y0267153D01*
X0123986Y0265554D02*
X0103306Y0265554D01*
X0104199Y0263956D02*
X0123094Y0263956D01*
X0122665Y0262357D02*
X0104627Y0262357D01*
X0104942Y0260759D02*
X0122350Y0260759D01*
X0122350Y0259160D02*
X0104942Y0259160D01*
X0104769Y0257562D02*
X0122523Y0257562D01*
X0122951Y0255963D02*
X0104341Y0255963D01*
X0103613Y0254365D02*
X0123679Y0254365D01*
X0124602Y0252766D02*
X0102690Y0252766D01*
X0101095Y0251168D02*
X0126197Y0251168D01*
X0128590Y0249569D02*
X0098702Y0249569D01*
X0063760Y0227190D02*
X0333541Y0227190D01*
X0336510Y0228789D02*
X0060790Y0228789D01*
X0006742Y0268751D02*
X0006600Y0268751D01*
X0006600Y0180833D02*
X0044280Y0180833D01*
X0044280Y0179235D02*
X0006600Y0179235D01*
X0006600Y0177636D02*
X0044280Y0177636D01*
X0044280Y0176038D02*
X0006600Y0176038D01*
X0006600Y0174439D02*
X0044793Y0174439D01*
X0046085Y0172841D02*
X0006600Y0172841D01*
X0103222Y0086521D02*
X0236906Y0086521D01*
X0238504Y0084923D02*
X0104820Y0084923D01*
X0111505Y0030573D02*
X0096119Y0030573D01*
X0099988Y0028975D02*
X0107636Y0028975D01*
X0105716Y0027376D02*
X0101908Y0027376D01*
X0103230Y0025778D02*
X0104395Y0025778D01*
X0116119Y0030573D02*
X0131505Y0030573D01*
X0127636Y0028975D02*
X0119988Y0028975D01*
X0121908Y0027376D02*
X0125716Y0027376D01*
X0124395Y0025778D02*
X0123230Y0025778D01*
X0136119Y0030573D02*
X0151505Y0030573D01*
X0147636Y0028975D02*
X0139988Y0028975D01*
X0141908Y0027376D02*
X0145716Y0027376D01*
X0144395Y0025778D02*
X0143230Y0025778D01*
X0143099Y0012990D02*
X0144526Y0012990D01*
X0145943Y0011391D02*
X0141681Y0011391D01*
X0139596Y0009793D02*
X0148028Y0009793D01*
X0159596Y0009793D02*
X0390701Y0009793D01*
X0390701Y0011391D02*
X0161681Y0011391D01*
X0163099Y0012990D02*
X0390701Y0012990D01*
X0390701Y0014588D02*
X0164022Y0014588D01*
X0128028Y0009793D02*
X0119596Y0009793D01*
X0121681Y0011391D02*
X0125943Y0011391D01*
X0124526Y0012990D02*
X0123099Y0012990D01*
X0108028Y0009793D02*
X0099596Y0009793D01*
X0101681Y0011391D02*
X0105943Y0011391D01*
X0104526Y0012990D02*
X0103099Y0012990D01*
X0211268Y0065740D02*
X0218026Y0065740D01*
X0222112Y0060237D02*
X0222112Y0057562D01*
X0235374Y0044300D01*
X0263050Y0044300D01*
X0268050Y0039300D01*
X0278050Y0039300D01*
X0283050Y0044300D01*
X0278050Y0049300D02*
X0288050Y0049300D01*
X0293050Y0044300D01*
X0278050Y0049300D02*
X0273050Y0044300D01*
X0268050Y0049300D01*
X0239425Y0049300D01*
X0226487Y0062238D01*
X0226487Y0065550D01*
X0233269Y0065740D02*
X0268270Y0065740D01*
X0277391Y0060945D02*
X0288709Y0060945D01*
X0287110Y0059346D02*
X0278990Y0059346D01*
X0280588Y0057748D02*
X0285512Y0057748D01*
X0285281Y0056149D02*
X0280818Y0056149D01*
X0256970Y0060945D02*
X0235700Y0060945D01*
X0237298Y0059346D02*
X0255747Y0059346D01*
X0255281Y0057748D02*
X0238897Y0057748D01*
X0240495Y0056149D02*
X0255281Y0056149D01*
X0247425Y0083988D02*
X0250862Y0087425D01*
X0250862Y0091175D01*
X0243264Y0098773D01*
X0243264Y0105336D01*
X0250336Y0105452D02*
X0250336Y0098264D01*
X0250336Y0105452D02*
X0243362Y0112425D01*
X0243362Y0118362D01*
X0251610Y0112097D02*
X0253138Y0112097D01*
X0230862Y0170238D02*
X0326800Y0170238D01*
X0322425Y0175237D02*
X0225862Y0175237D01*
X0344693Y0208008D02*
X0367673Y0208008D01*
X0367054Y0209606D02*
X0347350Y0209606D01*
X0348949Y0211205D02*
X0366626Y0211205D01*
X0366547Y0212803D02*
X0350005Y0212803D01*
X0350819Y0214402D02*
X0366547Y0214402D01*
X0366957Y0216001D02*
X0351248Y0216001D01*
X0351482Y0217599D02*
X0367463Y0217599D01*
X0368386Y0219198D02*
X0351482Y0219198D01*
X0351214Y0220796D02*
X0369679Y0220796D01*
X0371548Y0222395D02*
X0350786Y0222395D01*
X0349932Y0223993D02*
X0370861Y0223993D01*
X0369262Y0225592D02*
X0348823Y0225592D01*
X0347225Y0227190D02*
X0368146Y0227190D01*
X0367273Y0228789D02*
X0344255Y0228789D01*
X0384138Y0222395D02*
X0390701Y0222395D01*
X0390701Y0223993D02*
X0384826Y0223993D01*
X0386424Y0225592D02*
X0390701Y0225592D01*
X0390701Y0227190D02*
X0387541Y0227190D01*
X0388413Y0228789D02*
X0390701Y0228789D01*
X0390701Y0230387D02*
X0388842Y0230387D01*
X0389139Y0231986D02*
X0390701Y0231986D01*
X0390701Y0233584D02*
X0389139Y0233584D01*
X0388949Y0235183D02*
X0390701Y0235183D01*
X0390701Y0236781D02*
X0388521Y0236781D01*
X0387773Y0238380D02*
X0390701Y0238380D01*
X0390701Y0239978D02*
X0386826Y0239978D01*
X0385227Y0241577D02*
X0390701Y0241577D01*
X0390701Y0243175D02*
X0382786Y0243175D01*
X0386008Y0220796D02*
X0390701Y0220796D01*
X0390701Y0219198D02*
X0387300Y0219198D01*
X0388223Y0217599D02*
X0390701Y0217599D01*
X0390701Y0216001D02*
X0388730Y0216001D01*
X0389139Y0214402D02*
X0390701Y0214402D01*
X0390701Y0212803D02*
X0389139Y0212803D01*
X0389061Y0211205D02*
X0390701Y0211205D01*
X0390701Y0209606D02*
X0388632Y0209606D01*
X0388013Y0208008D02*
X0390701Y0208008D01*
X0390701Y0206409D02*
X0387090Y0206409D01*
X0385644Y0204811D02*
X0390701Y0204811D01*
X0390701Y0203212D02*
X0383508Y0203212D01*
X0385190Y0201614D02*
X0390701Y0201614D01*
X0390701Y0200015D02*
X0386788Y0200015D01*
X0387751Y0198417D02*
X0390701Y0198417D01*
X0390701Y0196818D02*
X0388511Y0196818D01*
X0388939Y0195220D02*
X0390701Y0195220D01*
X0390701Y0193621D02*
X0389139Y0193621D01*
X0389139Y0192023D02*
X0390701Y0192023D01*
X0390701Y0190424D02*
X0388852Y0190424D01*
X0388423Y0188826D02*
X0390701Y0188826D01*
X0390701Y0187227D02*
X0387562Y0187227D01*
X0386462Y0185629D02*
X0390701Y0185629D01*
X0390701Y0184030D02*
X0384863Y0184030D01*
X0384619Y0182432D02*
X0390701Y0182432D01*
X0390701Y0180833D02*
X0386285Y0180833D01*
X0387461Y0179235D02*
X0390701Y0179235D01*
X0390701Y0177636D02*
X0388376Y0177636D01*
X0388804Y0176038D02*
X0390701Y0176038D01*
X0390701Y0174439D02*
X0389139Y0174439D01*
X0389139Y0172841D02*
X0390701Y0172841D01*
X0390701Y0171242D02*
X0388986Y0171242D01*
X0388558Y0169644D02*
X0390701Y0169644D01*
X0390701Y0168045D02*
X0387853Y0168045D01*
X0386930Y0166447D02*
X0390701Y0166447D01*
X0390701Y0164848D02*
X0385366Y0164848D01*
X0383027Y0163250D02*
X0390701Y0163250D01*
X0288579Y0017785D02*
X0287521Y0017785D01*
X0278579Y0017785D02*
X0277521Y0017785D01*
X0268579Y0017785D02*
X0267521Y0017785D01*
D20*
X0222112Y0060237D03*
X0226487Y0065550D03*
X0212425Y0077738D03*
X0207737Y0071800D03*
X0247425Y0083988D03*
X0271800Y0071800D03*
X0277113Y0077738D03*
X0243362Y0118362D03*
X0230862Y0170238D03*
X0225862Y0175237D03*
X0221175Y0181800D03*
X0194612Y0184300D03*
X0194612Y0192737D03*
X0173362Y0184300D03*
X0098362Y0148363D03*
X0093646Y0158675D03*
X0093646Y0120550D03*
X0098362Y0115862D03*
X0154588Y0081470D03*
X0318363Y0181800D03*
X0322425Y0175237D03*
X0326800Y0170238D03*
D21*
X0376463Y0067408D03*
D22*
X0290894Y0140917D02*
X0272792Y0159019D01*
M02*
