G75*
%MOIN*%
%OFA0B0*%
%FSLAX25Y25*%
%IPPOS*%
%LPD*%
%AMOC8*
5,1,8,0,0,1.08239X$1,22.5*
%
%ADD10C,0.13398*%
%ADD11R,0.20800X0.07800*%
%ADD12R,0.06706X0.08674*%
%ADD13R,0.07099X0.07898*%
%ADD14C,0.06800*%
%ADD15R,0.06800X0.06800*%
%ADD16C,0.01360*%
%ADD17R,0.05524X0.07887*%
%ADD18R,0.14186X0.07887*%
%ADD19R,0.02800X0.06600*%
%ADD20OC8,0.07400*%
%ADD21R,0.10643X0.02375*%
%ADD22C,0.00712*%
%ADD23C,0.03162*%
%ADD24C,0.02484*%
%ADD25C,0.13792*%
%ADD26C,0.09400*%
%ADD27R,0.09400X0.09400*%
%ADD28OC8,0.06737*%
%ADD29R,0.06737X0.06737*%
%ADD30R,0.09461X0.06312*%
%ADD31R,0.04540X0.10052*%
%ADD32C,0.01064*%
%ADD33R,0.06312X0.12611*%
%ADD34R,0.08674X0.06706*%
%ADD35C,0.04737*%
%ADD36C,0.01575*%
%ADD37OC8,0.04762*%
%ADD38OC8,0.05800*%
D10*
X0056918Y0049044D03*
X0056918Y0218335D03*
X0340383Y0218335D03*
D11*
G36*
X0157648Y0097312D02*
X0142941Y0112019D01*
X0148456Y0117534D01*
X0163163Y0102827D01*
X0157648Y0097312D01*
G37*
G36*
X0184519Y0070441D02*
X0169812Y0085148D01*
X0175327Y0090663D01*
X0190034Y0075956D01*
X0184519Y0070441D01*
G37*
D12*
G36*
X0167156Y0063125D02*
X0162414Y0067867D01*
X0168546Y0073999D01*
X0173288Y0069257D01*
X0167156Y0063125D01*
G37*
G36*
X0158804Y0071476D02*
X0154062Y0076218D01*
X0160194Y0082350D01*
X0164936Y0077608D01*
X0158804Y0071476D01*
G37*
G36*
X0150108Y0092436D02*
X0154850Y0087694D01*
X0148718Y0081562D01*
X0143976Y0086304D01*
X0150108Y0092436D01*
G37*
G36*
X0141757Y0100788D02*
X0146499Y0096046D01*
X0140367Y0089914D01*
X0135625Y0094656D01*
X0141757Y0100788D01*
G37*
G36*
X0167242Y0122414D02*
X0162500Y0127156D01*
X0168632Y0133288D01*
X0173374Y0128546D01*
X0167242Y0122414D01*
G37*
G36*
X0175593Y0114062D02*
X0170851Y0118804D01*
X0176983Y0124936D01*
X0181725Y0120194D01*
X0175593Y0114062D01*
G37*
G36*
X0239089Y0154850D02*
X0243831Y0150108D01*
X0237699Y0143976D01*
X0232957Y0148718D01*
X0239089Y0154850D01*
G37*
G36*
X0247441Y0146499D02*
X0252183Y0141757D01*
X0246051Y0135625D01*
X0241309Y0140367D01*
X0247441Y0146499D01*
G37*
D13*
G36*
X0264478Y0182830D02*
X0269497Y0177811D01*
X0263914Y0172228D01*
X0258895Y0177247D01*
X0264478Y0182830D01*
G37*
G36*
X0256561Y0190747D02*
X0261580Y0185728D01*
X0255997Y0180145D01*
X0250978Y0185164D01*
X0256561Y0190747D01*
G37*
G36*
X0203790Y0218748D02*
X0208809Y0223767D01*
X0214392Y0218184D01*
X0209373Y0213165D01*
X0203790Y0218748D01*
G37*
G36*
X0211708Y0226666D02*
X0216727Y0231685D01*
X0222310Y0226102D01*
X0217291Y0221083D01*
X0211708Y0226666D01*
G37*
X0083336Y0093675D03*
X0072139Y0093675D03*
D14*
X0138725Y0169483D02*
X0134483Y0173725D01*
X0141554Y0180796D02*
X0145796Y0176554D01*
X0152867Y0183625D02*
X0148625Y0187867D01*
X0162822Y0202065D02*
X0167065Y0197822D01*
X0174136Y0204893D02*
X0169893Y0209136D01*
X0176964Y0216207D02*
X0181207Y0211964D01*
X0188278Y0219035D02*
X0184035Y0223278D01*
X0270671Y0161141D02*
X0274914Y0156898D01*
X0262327Y0144311D02*
X0258084Y0148554D01*
X0276186Y0130452D02*
X0280429Y0126209D01*
X0293016Y0138796D02*
X0288773Y0143039D01*
D15*
G36*
X0248072Y0091193D02*
X0243264Y0086385D01*
X0238456Y0091193D01*
X0243264Y0096001D01*
X0248072Y0091193D01*
G37*
D16*
X0252375Y0098711D02*
X0253055Y0099391D01*
X0253055Y0097137D01*
X0251463Y0095545D01*
X0249209Y0095545D01*
X0247617Y0097137D01*
X0247617Y0099391D01*
X0249209Y0100983D01*
X0251463Y0100983D01*
X0253055Y0099391D01*
X0252035Y0098968D01*
X0252035Y0097560D01*
X0251040Y0096565D01*
X0249632Y0096565D01*
X0248637Y0097560D01*
X0248637Y0098968D01*
X0249632Y0099963D01*
X0251040Y0099963D01*
X0252035Y0098968D01*
X0251015Y0098546D01*
X0251015Y0097982D01*
X0250618Y0097585D01*
X0250054Y0097585D01*
X0249657Y0097982D01*
X0249657Y0098546D01*
X0250054Y0098943D01*
X0250618Y0098943D01*
X0251015Y0098546D01*
X0259446Y0105783D02*
X0260126Y0106463D01*
X0260126Y0104209D01*
X0258534Y0102617D01*
X0256280Y0102617D01*
X0254688Y0104209D01*
X0254688Y0106463D01*
X0256280Y0108055D01*
X0258534Y0108055D01*
X0260126Y0106463D01*
X0259106Y0106040D01*
X0259106Y0104632D01*
X0258111Y0103637D01*
X0256703Y0103637D01*
X0255708Y0104632D01*
X0255708Y0106040D01*
X0256703Y0107035D01*
X0258111Y0107035D01*
X0259106Y0106040D01*
X0258086Y0105618D01*
X0258086Y0105054D01*
X0257689Y0104657D01*
X0257125Y0104657D01*
X0256728Y0105054D01*
X0256728Y0105618D01*
X0257125Y0106015D01*
X0257689Y0106015D01*
X0258086Y0105618D01*
X0252375Y0112854D02*
X0253055Y0113534D01*
X0253055Y0111280D01*
X0251463Y0109688D01*
X0249209Y0109688D01*
X0247617Y0111280D01*
X0247617Y0113534D01*
X0249209Y0115126D01*
X0251463Y0115126D01*
X0253055Y0113534D01*
X0252035Y0113111D01*
X0252035Y0111703D01*
X0251040Y0110708D01*
X0249632Y0110708D01*
X0248637Y0111703D01*
X0248637Y0113111D01*
X0249632Y0114106D01*
X0251040Y0114106D01*
X0252035Y0113111D01*
X0251015Y0112689D01*
X0251015Y0112125D01*
X0250618Y0111728D01*
X0250054Y0111728D01*
X0249657Y0112125D01*
X0249657Y0112689D01*
X0250054Y0113086D01*
X0250618Y0113086D01*
X0251015Y0112689D01*
X0245303Y0105783D02*
X0245983Y0106463D01*
X0245983Y0104209D01*
X0244391Y0102617D01*
X0242137Y0102617D01*
X0240545Y0104209D01*
X0240545Y0106463D01*
X0242137Y0108055D01*
X0244391Y0108055D01*
X0245983Y0106463D01*
X0244963Y0106040D01*
X0244963Y0104632D01*
X0243968Y0103637D01*
X0242560Y0103637D01*
X0241565Y0104632D01*
X0241565Y0106040D01*
X0242560Y0107035D01*
X0243968Y0107035D01*
X0244963Y0106040D01*
X0243943Y0105618D01*
X0243943Y0105054D01*
X0243546Y0104657D01*
X0242982Y0104657D01*
X0242585Y0105054D01*
X0242585Y0105618D01*
X0242982Y0106015D01*
X0243546Y0106015D01*
X0243943Y0105618D01*
X0238232Y0098711D02*
X0238912Y0099391D01*
X0238912Y0097137D01*
X0237320Y0095545D01*
X0235066Y0095545D01*
X0233474Y0097137D01*
X0233474Y0099391D01*
X0235066Y0100983D01*
X0237320Y0100983D01*
X0238912Y0099391D01*
X0237892Y0098968D01*
X0237892Y0097560D01*
X0236897Y0096565D01*
X0235489Y0096565D01*
X0234494Y0097560D01*
X0234494Y0098968D01*
X0235489Y0099963D01*
X0236897Y0099963D01*
X0237892Y0098968D01*
X0236872Y0098546D01*
X0236872Y0097982D01*
X0236475Y0097585D01*
X0235911Y0097585D01*
X0235514Y0097982D01*
X0235514Y0098546D01*
X0235911Y0098943D01*
X0236475Y0098943D01*
X0236872Y0098546D01*
D17*
G36*
X0256916Y0171635D02*
X0260822Y0167729D01*
X0255246Y0162153D01*
X0251340Y0166059D01*
X0256916Y0171635D01*
G37*
G36*
X0247729Y0180822D02*
X0251635Y0176916D01*
X0246059Y0171340D01*
X0242153Y0175246D01*
X0247729Y0180822D01*
G37*
D18*
X0060393Y0105862D03*
X0040707Y0105862D03*
D19*
G36*
X0178074Y0132595D02*
X0176094Y0134575D01*
X0180760Y0139241D01*
X0182740Y0137261D01*
X0178074Y0132595D01*
G37*
G36*
X0180266Y0130403D02*
X0178286Y0132383D01*
X0182952Y0137049D01*
X0184932Y0135069D01*
X0180266Y0130403D01*
G37*
G36*
X0182529Y0128141D02*
X0180549Y0130121D01*
X0185215Y0134787D01*
X0187195Y0132807D01*
X0182529Y0128141D01*
G37*
G36*
X0184721Y0125949D02*
X0182741Y0127929D01*
X0187407Y0132595D01*
X0189387Y0130615D01*
X0184721Y0125949D01*
G37*
G36*
X0186984Y0123686D02*
X0185004Y0125666D01*
X0189670Y0130332D01*
X0191650Y0128352D01*
X0186984Y0123686D01*
G37*
G36*
X0189176Y0121494D02*
X0187196Y0123474D01*
X0191862Y0128140D01*
X0193842Y0126160D01*
X0189176Y0121494D01*
G37*
G36*
X0191438Y0119231D02*
X0189458Y0121211D01*
X0194124Y0125877D01*
X0196104Y0123897D01*
X0191438Y0119231D01*
G37*
G36*
X0193630Y0117039D02*
X0191650Y0119019D01*
X0196316Y0123685D01*
X0198296Y0121705D01*
X0193630Y0117039D01*
G37*
G36*
X0199004Y0121705D02*
X0200984Y0123685D01*
X0205650Y0119019D01*
X0203670Y0117039D01*
X0199004Y0121705D01*
G37*
G36*
X0201196Y0123897D02*
X0203176Y0125877D01*
X0207842Y0121211D01*
X0205862Y0119231D01*
X0201196Y0123897D01*
G37*
G36*
X0203459Y0126160D02*
X0205439Y0128140D01*
X0210105Y0123474D01*
X0208125Y0121494D01*
X0203459Y0126160D01*
G37*
G36*
X0205651Y0128352D02*
X0207631Y0130332D01*
X0212297Y0125666D01*
X0210317Y0123686D01*
X0205651Y0128352D01*
G37*
G36*
X0207914Y0130615D02*
X0209894Y0132595D01*
X0214560Y0127929D01*
X0212580Y0125949D01*
X0207914Y0130615D01*
G37*
G36*
X0210106Y0132807D02*
X0212086Y0134787D01*
X0216752Y0130121D01*
X0214772Y0128141D01*
X0210106Y0132807D01*
G37*
G36*
X0212369Y0135069D02*
X0214349Y0137049D01*
X0219015Y0132383D01*
X0217035Y0130403D01*
X0212369Y0135069D01*
G37*
G36*
X0214561Y0137261D02*
X0216541Y0139241D01*
X0221207Y0134575D01*
X0219227Y0132595D01*
X0214561Y0137261D01*
G37*
G36*
X0216541Y0139949D02*
X0214561Y0141929D01*
X0219227Y0146595D01*
X0221207Y0144615D01*
X0216541Y0139949D01*
G37*
G36*
X0214349Y0142141D02*
X0212369Y0144121D01*
X0217035Y0148787D01*
X0219015Y0146807D01*
X0214349Y0142141D01*
G37*
G36*
X0212086Y0144404D02*
X0210106Y0146384D01*
X0214772Y0151050D01*
X0216752Y0149070D01*
X0212086Y0144404D01*
G37*
G36*
X0209894Y0146596D02*
X0207914Y0148576D01*
X0212580Y0153242D01*
X0214560Y0151262D01*
X0209894Y0146596D01*
G37*
G36*
X0207631Y0148859D02*
X0205651Y0150839D01*
X0210317Y0155505D01*
X0212297Y0153525D01*
X0207631Y0148859D01*
G37*
G36*
X0205439Y0151051D02*
X0203459Y0153031D01*
X0208125Y0157697D01*
X0210105Y0155717D01*
X0205439Y0151051D01*
G37*
G36*
X0203176Y0153314D02*
X0201196Y0155294D01*
X0205862Y0159960D01*
X0207842Y0157980D01*
X0203176Y0153314D01*
G37*
G36*
X0200984Y0155506D02*
X0199004Y0157486D01*
X0203670Y0162152D01*
X0205650Y0160172D01*
X0200984Y0155506D01*
G37*
G36*
X0191650Y0160172D02*
X0193630Y0162152D01*
X0198296Y0157486D01*
X0196316Y0155506D01*
X0191650Y0160172D01*
G37*
G36*
X0189458Y0157980D02*
X0191438Y0159960D01*
X0196104Y0155294D01*
X0194124Y0153314D01*
X0189458Y0157980D01*
G37*
G36*
X0187196Y0155717D02*
X0189176Y0157697D01*
X0193842Y0153031D01*
X0191862Y0151051D01*
X0187196Y0155717D01*
G37*
G36*
X0185004Y0153525D02*
X0186984Y0155505D01*
X0191650Y0150839D01*
X0189670Y0148859D01*
X0185004Y0153525D01*
G37*
G36*
X0182741Y0151262D02*
X0184721Y0153242D01*
X0189387Y0148576D01*
X0187407Y0146596D01*
X0182741Y0151262D01*
G37*
G36*
X0180549Y0149070D02*
X0182529Y0151050D01*
X0187195Y0146384D01*
X0185215Y0144404D01*
X0180549Y0149070D01*
G37*
G36*
X0178286Y0146807D02*
X0180266Y0148787D01*
X0184932Y0144121D01*
X0182952Y0142141D01*
X0178286Y0146807D01*
G37*
G36*
X0176094Y0144615D02*
X0178074Y0146595D01*
X0182740Y0141929D01*
X0180760Y0139949D01*
X0176094Y0144615D01*
G37*
D20*
X0198650Y0139595D03*
X0098675Y0079613D03*
X0098675Y0069613D03*
X0041800Y0069613D03*
X0031175Y0069613D03*
D21*
X0027194Y0085951D03*
X0027194Y0088510D03*
X0027194Y0091069D03*
D22*
X0032158Y0092797D02*
X0032158Y0094459D01*
X0032158Y0092797D02*
X0023016Y0092797D01*
X0023016Y0094459D01*
X0032158Y0094459D01*
X0032158Y0093508D02*
X0023016Y0093508D01*
X0023016Y0094219D02*
X0032158Y0094219D01*
X0032158Y0084223D02*
X0032158Y0082561D01*
X0023016Y0082561D01*
X0023016Y0084223D01*
X0032158Y0084223D01*
X0032158Y0083272D02*
X0023016Y0083272D01*
X0023016Y0083983D02*
X0032158Y0083983D01*
D23*
X0021879Y0080636D03*
X0021879Y0096384D03*
D24*
X0017100Y0099983D02*
X0017100Y0114833D01*
X0017100Y0099983D02*
X0011304Y0099983D01*
X0011304Y0114833D01*
X0017100Y0114833D01*
X0017100Y0102466D02*
X0011304Y0102466D01*
X0011304Y0104949D02*
X0017100Y0104949D01*
X0017100Y0107432D02*
X0011304Y0107432D01*
X0011304Y0109915D02*
X0017100Y0109915D01*
X0017100Y0112398D02*
X0011304Y0112398D01*
X0017100Y0077038D02*
X0017100Y0062188D01*
X0011304Y0062188D01*
X0011304Y0077038D01*
X0017100Y0077038D01*
X0017100Y0064671D02*
X0011304Y0064671D01*
X0011304Y0067154D02*
X0017100Y0067154D01*
X0017100Y0069637D02*
X0011304Y0069637D01*
X0011304Y0072120D02*
X0017100Y0072120D01*
X0017100Y0074603D02*
X0011304Y0074603D01*
D25*
X0013812Y0019497D03*
X0033812Y0019497D03*
X0053812Y0019497D03*
X0073812Y0019497D03*
X0093812Y0019497D03*
X0113812Y0019497D03*
X0133812Y0019497D03*
X0153812Y0019497D03*
X0377843Y0153300D03*
X0377843Y0173300D03*
X0377843Y0192985D03*
X0377843Y0212985D03*
X0377843Y0232985D03*
X0383685Y0259694D03*
X0363685Y0259694D03*
X0343685Y0259694D03*
X0323685Y0259694D03*
X0303685Y0259733D03*
X0283685Y0259733D03*
X0263685Y0259733D03*
X0243685Y0259733D03*
X0153646Y0259694D03*
X0133646Y0259694D03*
X0113646Y0259694D03*
X0093646Y0259694D03*
X0073646Y0259694D03*
X0053646Y0259694D03*
X0033646Y0259694D03*
X0013646Y0259694D03*
X0019514Y0232819D03*
X0019514Y0212819D03*
X0019514Y0192819D03*
D26*
X0078970Y0180934D03*
D27*
X0053380Y0180934D03*
D28*
X0263050Y0044300D03*
X0273050Y0044300D03*
X0273050Y0034300D03*
X0263050Y0034300D03*
X0263050Y0024300D03*
X0273050Y0024300D03*
X0273050Y0014300D03*
X0263050Y0014300D03*
X0283050Y0024300D03*
X0293050Y0024300D03*
X0293050Y0034300D03*
X0283050Y0034300D03*
X0283050Y0044300D03*
X0293050Y0044300D03*
X0293050Y0054300D03*
X0273050Y0054300D03*
D29*
X0263050Y0054300D03*
X0283050Y0054300D03*
D30*
X0065599Y0072666D03*
X0053001Y0072666D03*
X0281126Y0215237D03*
X0293724Y0215237D03*
D31*
X0345107Y0091424D03*
X0354162Y0091424D03*
X0363217Y0091424D03*
D32*
X0347601Y0072197D02*
X0347601Y0062619D01*
X0347601Y0072197D02*
X0360723Y0072197D01*
X0360723Y0062619D01*
X0347601Y0062619D01*
X0347601Y0063682D02*
X0360723Y0063682D01*
X0360723Y0064745D02*
X0347601Y0064745D01*
X0347601Y0065808D02*
X0360723Y0065808D01*
X0360723Y0066871D02*
X0347601Y0066871D01*
X0347601Y0067934D02*
X0360723Y0067934D01*
X0360723Y0068997D02*
X0347601Y0068997D01*
X0347601Y0070060D02*
X0360723Y0070060D01*
X0360723Y0071123D02*
X0347601Y0071123D01*
X0347601Y0072186D02*
X0360723Y0072186D01*
D33*
X0316175Y0072526D03*
X0316175Y0091424D03*
D34*
X0380540Y0091424D03*
X0380540Y0079613D03*
D35*
X0222272Y0017548D03*
X0119910Y0072666D03*
X0119910Y0206524D03*
X0265580Y0218335D03*
D36*
X0262430Y0218335D02*
X0262432Y0218447D01*
X0262438Y0218558D01*
X0262448Y0218670D01*
X0262462Y0218781D01*
X0262479Y0218891D01*
X0262501Y0219001D01*
X0262527Y0219110D01*
X0262556Y0219218D01*
X0262589Y0219324D01*
X0262626Y0219430D01*
X0262667Y0219534D01*
X0262712Y0219637D01*
X0262760Y0219738D01*
X0262811Y0219837D01*
X0262866Y0219934D01*
X0262925Y0220029D01*
X0262986Y0220123D01*
X0263051Y0220214D01*
X0263120Y0220302D01*
X0263191Y0220388D01*
X0263265Y0220472D01*
X0263343Y0220552D01*
X0263423Y0220630D01*
X0263506Y0220706D01*
X0263591Y0220778D01*
X0263679Y0220847D01*
X0263769Y0220913D01*
X0263862Y0220975D01*
X0263957Y0221035D01*
X0264054Y0221091D01*
X0264152Y0221143D01*
X0264253Y0221192D01*
X0264355Y0221237D01*
X0264459Y0221279D01*
X0264564Y0221317D01*
X0264671Y0221351D01*
X0264778Y0221381D01*
X0264887Y0221408D01*
X0264996Y0221430D01*
X0265107Y0221449D01*
X0265217Y0221464D01*
X0265329Y0221475D01*
X0265440Y0221482D01*
X0265552Y0221485D01*
X0265664Y0221484D01*
X0265776Y0221479D01*
X0265887Y0221470D01*
X0265998Y0221457D01*
X0266109Y0221440D01*
X0266219Y0221420D01*
X0266328Y0221395D01*
X0266436Y0221367D01*
X0266543Y0221334D01*
X0266649Y0221298D01*
X0266753Y0221258D01*
X0266856Y0221215D01*
X0266958Y0221168D01*
X0267057Y0221117D01*
X0267155Y0221063D01*
X0267251Y0221005D01*
X0267345Y0220944D01*
X0267436Y0220880D01*
X0267525Y0220813D01*
X0267612Y0220742D01*
X0267696Y0220668D01*
X0267778Y0220592D01*
X0267856Y0220512D01*
X0267932Y0220430D01*
X0268005Y0220345D01*
X0268075Y0220258D01*
X0268141Y0220168D01*
X0268205Y0220076D01*
X0268265Y0219982D01*
X0268322Y0219886D01*
X0268375Y0219787D01*
X0268425Y0219687D01*
X0268471Y0219586D01*
X0268514Y0219482D01*
X0268553Y0219377D01*
X0268588Y0219271D01*
X0268619Y0219164D01*
X0268647Y0219055D01*
X0268670Y0218946D01*
X0268690Y0218836D01*
X0268706Y0218725D01*
X0268718Y0218614D01*
X0268726Y0218503D01*
X0268730Y0218391D01*
X0268730Y0218279D01*
X0268726Y0218167D01*
X0268718Y0218056D01*
X0268706Y0217945D01*
X0268690Y0217834D01*
X0268670Y0217724D01*
X0268647Y0217615D01*
X0268619Y0217506D01*
X0268588Y0217399D01*
X0268553Y0217293D01*
X0268514Y0217188D01*
X0268471Y0217084D01*
X0268425Y0216983D01*
X0268375Y0216883D01*
X0268322Y0216784D01*
X0268265Y0216688D01*
X0268205Y0216594D01*
X0268141Y0216502D01*
X0268075Y0216412D01*
X0268005Y0216325D01*
X0267932Y0216240D01*
X0267856Y0216158D01*
X0267778Y0216078D01*
X0267696Y0216002D01*
X0267612Y0215928D01*
X0267525Y0215857D01*
X0267436Y0215790D01*
X0267345Y0215726D01*
X0267251Y0215665D01*
X0267155Y0215607D01*
X0267057Y0215553D01*
X0266958Y0215502D01*
X0266856Y0215455D01*
X0266753Y0215412D01*
X0266649Y0215372D01*
X0266543Y0215336D01*
X0266436Y0215303D01*
X0266328Y0215275D01*
X0266219Y0215250D01*
X0266109Y0215230D01*
X0265998Y0215213D01*
X0265887Y0215200D01*
X0265776Y0215191D01*
X0265664Y0215186D01*
X0265552Y0215185D01*
X0265440Y0215188D01*
X0265329Y0215195D01*
X0265217Y0215206D01*
X0265107Y0215221D01*
X0264996Y0215240D01*
X0264887Y0215262D01*
X0264778Y0215289D01*
X0264671Y0215319D01*
X0264564Y0215353D01*
X0264459Y0215391D01*
X0264355Y0215433D01*
X0264253Y0215478D01*
X0264152Y0215527D01*
X0264054Y0215579D01*
X0263957Y0215635D01*
X0263862Y0215695D01*
X0263769Y0215757D01*
X0263679Y0215823D01*
X0263591Y0215892D01*
X0263506Y0215964D01*
X0263423Y0216040D01*
X0263343Y0216118D01*
X0263265Y0216198D01*
X0263191Y0216282D01*
X0263120Y0216368D01*
X0263051Y0216456D01*
X0262986Y0216547D01*
X0262925Y0216641D01*
X0262866Y0216736D01*
X0262811Y0216833D01*
X0262760Y0216932D01*
X0262712Y0217033D01*
X0262667Y0217136D01*
X0262626Y0217240D01*
X0262589Y0217346D01*
X0262556Y0217452D01*
X0262527Y0217560D01*
X0262501Y0217669D01*
X0262479Y0217779D01*
X0262462Y0217889D01*
X0262448Y0218000D01*
X0262438Y0218112D01*
X0262432Y0218223D01*
X0262430Y0218335D01*
X0116760Y0206524D02*
X0116762Y0206636D01*
X0116768Y0206747D01*
X0116778Y0206859D01*
X0116792Y0206970D01*
X0116809Y0207080D01*
X0116831Y0207190D01*
X0116857Y0207299D01*
X0116886Y0207407D01*
X0116919Y0207513D01*
X0116956Y0207619D01*
X0116997Y0207723D01*
X0117042Y0207826D01*
X0117090Y0207927D01*
X0117141Y0208026D01*
X0117196Y0208123D01*
X0117255Y0208218D01*
X0117316Y0208312D01*
X0117381Y0208403D01*
X0117450Y0208491D01*
X0117521Y0208577D01*
X0117595Y0208661D01*
X0117673Y0208741D01*
X0117753Y0208819D01*
X0117836Y0208895D01*
X0117921Y0208967D01*
X0118009Y0209036D01*
X0118099Y0209102D01*
X0118192Y0209164D01*
X0118287Y0209224D01*
X0118384Y0209280D01*
X0118482Y0209332D01*
X0118583Y0209381D01*
X0118685Y0209426D01*
X0118789Y0209468D01*
X0118894Y0209506D01*
X0119001Y0209540D01*
X0119108Y0209570D01*
X0119217Y0209597D01*
X0119326Y0209619D01*
X0119437Y0209638D01*
X0119547Y0209653D01*
X0119659Y0209664D01*
X0119770Y0209671D01*
X0119882Y0209674D01*
X0119994Y0209673D01*
X0120106Y0209668D01*
X0120217Y0209659D01*
X0120328Y0209646D01*
X0120439Y0209629D01*
X0120549Y0209609D01*
X0120658Y0209584D01*
X0120766Y0209556D01*
X0120873Y0209523D01*
X0120979Y0209487D01*
X0121083Y0209447D01*
X0121186Y0209404D01*
X0121288Y0209357D01*
X0121387Y0209306D01*
X0121485Y0209252D01*
X0121581Y0209194D01*
X0121675Y0209133D01*
X0121766Y0209069D01*
X0121855Y0209002D01*
X0121942Y0208931D01*
X0122026Y0208857D01*
X0122108Y0208781D01*
X0122186Y0208701D01*
X0122262Y0208619D01*
X0122335Y0208534D01*
X0122405Y0208447D01*
X0122471Y0208357D01*
X0122535Y0208265D01*
X0122595Y0208171D01*
X0122652Y0208075D01*
X0122705Y0207976D01*
X0122755Y0207876D01*
X0122801Y0207775D01*
X0122844Y0207671D01*
X0122883Y0207566D01*
X0122918Y0207460D01*
X0122949Y0207353D01*
X0122977Y0207244D01*
X0123000Y0207135D01*
X0123020Y0207025D01*
X0123036Y0206914D01*
X0123048Y0206803D01*
X0123056Y0206692D01*
X0123060Y0206580D01*
X0123060Y0206468D01*
X0123056Y0206356D01*
X0123048Y0206245D01*
X0123036Y0206134D01*
X0123020Y0206023D01*
X0123000Y0205913D01*
X0122977Y0205804D01*
X0122949Y0205695D01*
X0122918Y0205588D01*
X0122883Y0205482D01*
X0122844Y0205377D01*
X0122801Y0205273D01*
X0122755Y0205172D01*
X0122705Y0205072D01*
X0122652Y0204973D01*
X0122595Y0204877D01*
X0122535Y0204783D01*
X0122471Y0204691D01*
X0122405Y0204601D01*
X0122335Y0204514D01*
X0122262Y0204429D01*
X0122186Y0204347D01*
X0122108Y0204267D01*
X0122026Y0204191D01*
X0121942Y0204117D01*
X0121855Y0204046D01*
X0121766Y0203979D01*
X0121675Y0203915D01*
X0121581Y0203854D01*
X0121485Y0203796D01*
X0121387Y0203742D01*
X0121288Y0203691D01*
X0121186Y0203644D01*
X0121083Y0203601D01*
X0120979Y0203561D01*
X0120873Y0203525D01*
X0120766Y0203492D01*
X0120658Y0203464D01*
X0120549Y0203439D01*
X0120439Y0203419D01*
X0120328Y0203402D01*
X0120217Y0203389D01*
X0120106Y0203380D01*
X0119994Y0203375D01*
X0119882Y0203374D01*
X0119770Y0203377D01*
X0119659Y0203384D01*
X0119547Y0203395D01*
X0119437Y0203410D01*
X0119326Y0203429D01*
X0119217Y0203451D01*
X0119108Y0203478D01*
X0119001Y0203508D01*
X0118894Y0203542D01*
X0118789Y0203580D01*
X0118685Y0203622D01*
X0118583Y0203667D01*
X0118482Y0203716D01*
X0118384Y0203768D01*
X0118287Y0203824D01*
X0118192Y0203884D01*
X0118099Y0203946D01*
X0118009Y0204012D01*
X0117921Y0204081D01*
X0117836Y0204153D01*
X0117753Y0204229D01*
X0117673Y0204307D01*
X0117595Y0204387D01*
X0117521Y0204471D01*
X0117450Y0204557D01*
X0117381Y0204645D01*
X0117316Y0204736D01*
X0117255Y0204830D01*
X0117196Y0204925D01*
X0117141Y0205022D01*
X0117090Y0205121D01*
X0117042Y0205222D01*
X0116997Y0205325D01*
X0116956Y0205429D01*
X0116919Y0205535D01*
X0116886Y0205641D01*
X0116857Y0205749D01*
X0116831Y0205858D01*
X0116809Y0205968D01*
X0116792Y0206078D01*
X0116778Y0206189D01*
X0116768Y0206301D01*
X0116762Y0206412D01*
X0116760Y0206524D01*
X0116760Y0072666D02*
X0116762Y0072778D01*
X0116768Y0072889D01*
X0116778Y0073001D01*
X0116792Y0073112D01*
X0116809Y0073222D01*
X0116831Y0073332D01*
X0116857Y0073441D01*
X0116886Y0073549D01*
X0116919Y0073655D01*
X0116956Y0073761D01*
X0116997Y0073865D01*
X0117042Y0073968D01*
X0117090Y0074069D01*
X0117141Y0074168D01*
X0117196Y0074265D01*
X0117255Y0074360D01*
X0117316Y0074454D01*
X0117381Y0074545D01*
X0117450Y0074633D01*
X0117521Y0074719D01*
X0117595Y0074803D01*
X0117673Y0074883D01*
X0117753Y0074961D01*
X0117836Y0075037D01*
X0117921Y0075109D01*
X0118009Y0075178D01*
X0118099Y0075244D01*
X0118192Y0075306D01*
X0118287Y0075366D01*
X0118384Y0075422D01*
X0118482Y0075474D01*
X0118583Y0075523D01*
X0118685Y0075568D01*
X0118789Y0075610D01*
X0118894Y0075648D01*
X0119001Y0075682D01*
X0119108Y0075712D01*
X0119217Y0075739D01*
X0119326Y0075761D01*
X0119437Y0075780D01*
X0119547Y0075795D01*
X0119659Y0075806D01*
X0119770Y0075813D01*
X0119882Y0075816D01*
X0119994Y0075815D01*
X0120106Y0075810D01*
X0120217Y0075801D01*
X0120328Y0075788D01*
X0120439Y0075771D01*
X0120549Y0075751D01*
X0120658Y0075726D01*
X0120766Y0075698D01*
X0120873Y0075665D01*
X0120979Y0075629D01*
X0121083Y0075589D01*
X0121186Y0075546D01*
X0121288Y0075499D01*
X0121387Y0075448D01*
X0121485Y0075394D01*
X0121581Y0075336D01*
X0121675Y0075275D01*
X0121766Y0075211D01*
X0121855Y0075144D01*
X0121942Y0075073D01*
X0122026Y0074999D01*
X0122108Y0074923D01*
X0122186Y0074843D01*
X0122262Y0074761D01*
X0122335Y0074676D01*
X0122405Y0074589D01*
X0122471Y0074499D01*
X0122535Y0074407D01*
X0122595Y0074313D01*
X0122652Y0074217D01*
X0122705Y0074118D01*
X0122755Y0074018D01*
X0122801Y0073917D01*
X0122844Y0073813D01*
X0122883Y0073708D01*
X0122918Y0073602D01*
X0122949Y0073495D01*
X0122977Y0073386D01*
X0123000Y0073277D01*
X0123020Y0073167D01*
X0123036Y0073056D01*
X0123048Y0072945D01*
X0123056Y0072834D01*
X0123060Y0072722D01*
X0123060Y0072610D01*
X0123056Y0072498D01*
X0123048Y0072387D01*
X0123036Y0072276D01*
X0123020Y0072165D01*
X0123000Y0072055D01*
X0122977Y0071946D01*
X0122949Y0071837D01*
X0122918Y0071730D01*
X0122883Y0071624D01*
X0122844Y0071519D01*
X0122801Y0071415D01*
X0122755Y0071314D01*
X0122705Y0071214D01*
X0122652Y0071115D01*
X0122595Y0071019D01*
X0122535Y0070925D01*
X0122471Y0070833D01*
X0122405Y0070743D01*
X0122335Y0070656D01*
X0122262Y0070571D01*
X0122186Y0070489D01*
X0122108Y0070409D01*
X0122026Y0070333D01*
X0121942Y0070259D01*
X0121855Y0070188D01*
X0121766Y0070121D01*
X0121675Y0070057D01*
X0121581Y0069996D01*
X0121485Y0069938D01*
X0121387Y0069884D01*
X0121288Y0069833D01*
X0121186Y0069786D01*
X0121083Y0069743D01*
X0120979Y0069703D01*
X0120873Y0069667D01*
X0120766Y0069634D01*
X0120658Y0069606D01*
X0120549Y0069581D01*
X0120439Y0069561D01*
X0120328Y0069544D01*
X0120217Y0069531D01*
X0120106Y0069522D01*
X0119994Y0069517D01*
X0119882Y0069516D01*
X0119770Y0069519D01*
X0119659Y0069526D01*
X0119547Y0069537D01*
X0119437Y0069552D01*
X0119326Y0069571D01*
X0119217Y0069593D01*
X0119108Y0069620D01*
X0119001Y0069650D01*
X0118894Y0069684D01*
X0118789Y0069722D01*
X0118685Y0069764D01*
X0118583Y0069809D01*
X0118482Y0069858D01*
X0118384Y0069910D01*
X0118287Y0069966D01*
X0118192Y0070026D01*
X0118099Y0070088D01*
X0118009Y0070154D01*
X0117921Y0070223D01*
X0117836Y0070295D01*
X0117753Y0070371D01*
X0117673Y0070449D01*
X0117595Y0070529D01*
X0117521Y0070613D01*
X0117450Y0070699D01*
X0117381Y0070787D01*
X0117316Y0070878D01*
X0117255Y0070972D01*
X0117196Y0071067D01*
X0117141Y0071164D01*
X0117090Y0071263D01*
X0117042Y0071364D01*
X0116997Y0071467D01*
X0116956Y0071571D01*
X0116919Y0071677D01*
X0116886Y0071783D01*
X0116857Y0071891D01*
X0116831Y0072000D01*
X0116809Y0072110D01*
X0116792Y0072220D01*
X0116778Y0072331D01*
X0116768Y0072443D01*
X0116762Y0072554D01*
X0116760Y0072666D01*
X0219122Y0017548D02*
X0219124Y0017660D01*
X0219130Y0017771D01*
X0219140Y0017883D01*
X0219154Y0017994D01*
X0219171Y0018104D01*
X0219193Y0018214D01*
X0219219Y0018323D01*
X0219248Y0018431D01*
X0219281Y0018537D01*
X0219318Y0018643D01*
X0219359Y0018747D01*
X0219404Y0018850D01*
X0219452Y0018951D01*
X0219503Y0019050D01*
X0219558Y0019147D01*
X0219617Y0019242D01*
X0219678Y0019336D01*
X0219743Y0019427D01*
X0219812Y0019515D01*
X0219883Y0019601D01*
X0219957Y0019685D01*
X0220035Y0019765D01*
X0220115Y0019843D01*
X0220198Y0019919D01*
X0220283Y0019991D01*
X0220371Y0020060D01*
X0220461Y0020126D01*
X0220554Y0020188D01*
X0220649Y0020248D01*
X0220746Y0020304D01*
X0220844Y0020356D01*
X0220945Y0020405D01*
X0221047Y0020450D01*
X0221151Y0020492D01*
X0221256Y0020530D01*
X0221363Y0020564D01*
X0221470Y0020594D01*
X0221579Y0020621D01*
X0221688Y0020643D01*
X0221799Y0020662D01*
X0221909Y0020677D01*
X0222021Y0020688D01*
X0222132Y0020695D01*
X0222244Y0020698D01*
X0222356Y0020697D01*
X0222468Y0020692D01*
X0222579Y0020683D01*
X0222690Y0020670D01*
X0222801Y0020653D01*
X0222911Y0020633D01*
X0223020Y0020608D01*
X0223128Y0020580D01*
X0223235Y0020547D01*
X0223341Y0020511D01*
X0223445Y0020471D01*
X0223548Y0020428D01*
X0223650Y0020381D01*
X0223749Y0020330D01*
X0223847Y0020276D01*
X0223943Y0020218D01*
X0224037Y0020157D01*
X0224128Y0020093D01*
X0224217Y0020026D01*
X0224304Y0019955D01*
X0224388Y0019881D01*
X0224470Y0019805D01*
X0224548Y0019725D01*
X0224624Y0019643D01*
X0224697Y0019558D01*
X0224767Y0019471D01*
X0224833Y0019381D01*
X0224897Y0019289D01*
X0224957Y0019195D01*
X0225014Y0019099D01*
X0225067Y0019000D01*
X0225117Y0018900D01*
X0225163Y0018799D01*
X0225206Y0018695D01*
X0225245Y0018590D01*
X0225280Y0018484D01*
X0225311Y0018377D01*
X0225339Y0018268D01*
X0225362Y0018159D01*
X0225382Y0018049D01*
X0225398Y0017938D01*
X0225410Y0017827D01*
X0225418Y0017716D01*
X0225422Y0017604D01*
X0225422Y0017492D01*
X0225418Y0017380D01*
X0225410Y0017269D01*
X0225398Y0017158D01*
X0225382Y0017047D01*
X0225362Y0016937D01*
X0225339Y0016828D01*
X0225311Y0016719D01*
X0225280Y0016612D01*
X0225245Y0016506D01*
X0225206Y0016401D01*
X0225163Y0016297D01*
X0225117Y0016196D01*
X0225067Y0016096D01*
X0225014Y0015997D01*
X0224957Y0015901D01*
X0224897Y0015807D01*
X0224833Y0015715D01*
X0224767Y0015625D01*
X0224697Y0015538D01*
X0224624Y0015453D01*
X0224548Y0015371D01*
X0224470Y0015291D01*
X0224388Y0015215D01*
X0224304Y0015141D01*
X0224217Y0015070D01*
X0224128Y0015003D01*
X0224037Y0014939D01*
X0223943Y0014878D01*
X0223847Y0014820D01*
X0223749Y0014766D01*
X0223650Y0014715D01*
X0223548Y0014668D01*
X0223445Y0014625D01*
X0223341Y0014585D01*
X0223235Y0014549D01*
X0223128Y0014516D01*
X0223020Y0014488D01*
X0222911Y0014463D01*
X0222801Y0014443D01*
X0222690Y0014426D01*
X0222579Y0014413D01*
X0222468Y0014404D01*
X0222356Y0014399D01*
X0222244Y0014398D01*
X0222132Y0014401D01*
X0222021Y0014408D01*
X0221909Y0014419D01*
X0221799Y0014434D01*
X0221688Y0014453D01*
X0221579Y0014475D01*
X0221470Y0014502D01*
X0221363Y0014532D01*
X0221256Y0014566D01*
X0221151Y0014604D01*
X0221047Y0014646D01*
X0220945Y0014691D01*
X0220844Y0014740D01*
X0220746Y0014792D01*
X0220649Y0014848D01*
X0220554Y0014908D01*
X0220461Y0014970D01*
X0220371Y0015036D01*
X0220283Y0015105D01*
X0220198Y0015177D01*
X0220115Y0015253D01*
X0220035Y0015331D01*
X0219957Y0015411D01*
X0219883Y0015495D01*
X0219812Y0015581D01*
X0219743Y0015669D01*
X0219678Y0015760D01*
X0219617Y0015854D01*
X0219558Y0015949D01*
X0219503Y0016046D01*
X0219452Y0016145D01*
X0219404Y0016246D01*
X0219359Y0016349D01*
X0219318Y0016453D01*
X0219281Y0016559D01*
X0219248Y0016665D01*
X0219219Y0016773D01*
X0219193Y0016882D01*
X0219171Y0016992D01*
X0219154Y0017102D01*
X0219140Y0017213D01*
X0219130Y0017325D01*
X0219124Y0017436D01*
X0219122Y0017548D01*
D37*
X0222112Y0060237D03*
X0226487Y0065550D03*
X0212425Y0077738D03*
X0207737Y0071800D03*
X0247425Y0083988D03*
X0271800Y0071800D03*
X0277113Y0077738D03*
X0243362Y0118362D03*
X0230862Y0170238D03*
X0225862Y0175237D03*
X0221175Y0181800D03*
X0194612Y0184300D03*
X0194612Y0192737D03*
X0173362Y0184300D03*
X0098362Y0148363D03*
X0093646Y0158675D03*
X0093646Y0120550D03*
X0098362Y0115862D03*
X0154588Y0081470D03*
X0318363Y0181800D03*
X0322425Y0175237D03*
X0326800Y0170238D03*
D38*
X0376463Y0067408D03*
M02*
